<svg width="1136" height="323" viewBox="0 0 1136 323" fill="none" xmlns="http://www.w3.org/2000/svg">
<rect width="326" height="85" rx="34" fill="#C3D7F1"/>
<path d="M107.837 35.2H114.245V35.656H112.925V51.544H114.245V52H106.925V51.544H108.245V36.544H108.149L104.549 52H101.549L97.3252 36.472H97.2292V51.544H98.5492V52H95.2852V51.544H96.6052V35.656H95.2852V35.2H101.765L104.957 47.56L107.837 35.2ZM120.937 52.24C118.873 52.24 117.321 51.712 116.281 50.656C115.257 49.584 114.745 48.104 114.745 46.216C114.745 44.312 115.321 42.856 116.473 41.848C117.641 40.84 119.121 40.336 120.913 40.336C124.545 40.336 126.289 42.16 126.145 45.808H119.377V46.744C119.377 48.312 119.577 49.496 119.977 50.296C120.377 51.096 121.073 51.496 122.065 51.496C123.921 51.496 125.137 50.504 125.713 48.52L126.145 48.592C125.841 49.744 125.289 50.64 124.489 51.28C123.705 51.92 122.521 52.24 120.937 52.24ZM119.401 45.328H121.873V44.152C121.873 42.856 121.793 41.976 121.633 41.512C121.489 41.032 121.185 40.792 120.721 40.792C120.273 40.792 119.937 41.048 119.713 41.56C119.505 42.056 119.401 42.92 119.401 44.152V45.328ZM131.416 47.032C131.416 48.712 131.504 49.832 131.68 50.392C131.856 50.936 132.176 51.208 132.64 51.208C133.12 51.208 133.528 51 133.864 50.584C134.216 50.168 134.392 49.552 134.392 48.736V43.504C134.392 42.816 134.256 42.232 133.984 41.752C133.712 41.272 133.312 41.032 132.784 41.032C132.256 41.032 131.896 41.384 131.704 42.088C131.512 42.792 131.416 44.024 131.416 45.784V47.032ZM134.704 52L134.44 50.32C133.896 51.6 132.792 52.24 131.128 52.24C129.752 52.24 128.68 51.744 127.912 50.752C127.16 49.76 126.784 48.28 126.784 46.312C126.784 42.328 128.368 40.336 131.536 40.336C132.944 40.336 133.872 40.728 134.32 41.512V34.432H132.856V34H138.856V51.568H140.032V52H134.704ZM143.726 38.92C142.878 38.92 142.27 38.704 141.902 38.272C141.55 37.84 141.374 37.304 141.374 36.664C141.374 36.024 141.566 35.496 141.95 35.08C142.35 34.664 142.95 34.456 143.75 34.456C144.55 34.456 145.158 34.648 145.574 35.032C145.99 35.4 146.198 35.936 146.198 36.64C146.198 37.328 145.998 37.88 145.598 38.296C145.198 38.712 144.574 38.92 143.726 38.92ZM140.102 40.576H145.982V51.568H147.326V52H140.198V51.568H141.518V41.008H140.102V40.576ZM154.079 40.768C153.375 40.768 152.871 41.152 152.567 41.92C152.263 42.688 152.111 43.96 152.111 45.736V46.984C152.111 48.568 152.287 49.704 152.639 50.392C152.991 51.08 153.639 51.424 154.583 51.424C155.527 51.424 156.279 51.104 156.839 50.464C157.399 49.824 157.759 49.096 157.919 48.28L158.351 48.328C158.047 49.704 157.487 50.696 156.671 51.304C155.839 51.928 154.695 52.24 153.239 52.24C151.383 52.24 149.959 51.744 148.967 50.752C147.975 49.744 147.479 48.28 147.479 46.36C147.479 44.424 148.039 42.936 149.159 41.896C150.295 40.856 151.871 40.336 153.887 40.336C155.311 40.336 156.399 40.616 157.151 41.176C157.903 41.72 158.279 42.408 158.279 43.24C158.279 44.072 158.095 44.68 157.727 45.064C157.375 45.448 156.879 45.64 156.239 45.64C155.615 45.64 155.111 45.472 154.727 45.136C154.343 44.8 154.151 44.304 154.151 43.648C154.151 43.36 154.191 43.072 154.271 42.784H155.063C155.175 42.464 155.231 42.176 155.231 41.92C155.231 41.152 154.847 40.768 154.079 40.768ZM164.265 46.36H164.961V44.512C164.961 42.992 164.873 41.976 164.697 41.464C164.537 40.936 164.217 40.672 163.737 40.672C163.449 40.672 163.185 40.752 162.945 40.912C162.721 41.056 162.609 41.264 162.609 41.536C162.609 41.792 162.657 42.056 162.753 42.328H163.353C163.481 42.664 163.545 43.072 163.545 43.552C163.545 44.016 163.345 44.424 162.945 44.776C162.545 45.112 162.041 45.28 161.433 45.28C160.057 45.28 159.369 44.616 159.369 43.288C159.369 41.32 161.041 40.336 164.385 40.336C166.289 40.336 167.601 40.664 168.321 41.32C169.057 41.96 169.425 43.144 169.425 44.872V49.744C169.425 50.576 169.657 50.992 170.121 50.992C170.665 50.992 170.985 50.168 171.081 48.52L171.441 48.544C171.377 49.952 171.113 50.92 170.649 51.448C170.185 51.976 169.425 52.24 168.369 52.24C166.449 52.24 165.345 51.648 165.057 50.464C164.849 51.072 164.537 51.52 164.121 51.808C163.705 52.096 163.097 52.24 162.297 52.24C159.929 52.24 158.745 51.272 158.745 49.336C158.745 48.2 159.193 47.424 160.089 47.008C161.001 46.576 162.393 46.36 164.265 46.36ZM163.305 49.312C163.305 50.144 163.345 50.68 163.425 50.92C163.521 51.16 163.689 51.28 163.929 51.28C164.185 51.28 164.417 51.08 164.625 50.68C164.849 50.264 164.961 49.696 164.961 48.976V46.744H164.793C163.801 46.744 163.305 47.472 163.305 48.928V49.312ZM171.124 34H177.004V51.568H178.348V52H171.22V51.568H172.54V34.432H171.124V34ZM192.295 47.656L196.471 35.656H194.599V35.2H198.271V35.656H197.143L191.359 52.24H189.343L183.223 35.656H182.119V35.2H189.967V35.656H188.263L192.295 47.656ZM201.365 38.92C200.517 38.92 199.909 38.704 199.541 38.272C199.189 37.84 199.013 37.304 199.013 36.664C199.013 36.024 199.205 35.496 199.589 35.08C199.989 34.664 200.589 34.456 201.389 34.456C202.189 34.456 202.797 34.648 203.213 35.032C203.629 35.4 203.837 35.936 203.837 36.64C203.837 37.328 203.637 37.88 203.237 38.296C202.837 38.712 202.213 38.92 201.365 38.92ZM197.741 40.576H203.621V51.568H204.965V52H197.837V51.568H199.157V41.008H197.741V40.576ZM205.55 52.24V47.944H205.838C206.254 49.336 206.814 50.312 207.518 50.872C208.222 51.432 209.102 51.712 210.158 51.712C211.79 51.712 212.606 51.192 212.606 50.152C212.606 49.704 212.406 49.368 212.006 49.144C211.382 48.792 210.582 48.52 209.606 48.328C208.518 48.04 207.606 47.656 206.87 47.176C205.99 46.6 205.55 45.688 205.55 44.44C205.55 43.192 205.934 42.2 206.702 41.464C207.47 40.712 208.494 40.336 209.774 40.336C210.558 40.336 211.366 40.52 212.198 40.888C212.502 41.016 212.734 41.08 212.894 41.08C213.054 41.08 213.19 41.024 213.302 40.912C213.414 40.8 213.55 40.592 213.71 40.288H213.974V43.96H213.686C212.87 41.88 211.606 40.84 209.894 40.84C209.142 40.84 208.582 40.976 208.214 41.248C207.846 41.504 207.662 41.832 207.662 42.232C207.662 42.472 207.718 42.664 207.83 42.808C207.942 42.936 208.03 43.032 208.094 43.096C208.158 43.16 208.262 43.232 208.406 43.312C208.55 43.376 208.67 43.432 208.766 43.48C208.862 43.512 209.006 43.56 209.198 43.624C209.406 43.688 209.558 43.728 209.654 43.744C210.742 44.016 211.526 44.256 212.006 44.464C212.486 44.656 212.942 44.896 213.374 45.184C214.254 45.792 214.694 46.776 214.694 48.136C214.694 49.48 214.294 50.504 213.494 51.208C212.694 51.896 211.598 52.24 210.206 52.24C209.214 52.24 208.254 52.008 207.326 51.544C207.134 51.416 206.982 51.352 206.87 51.352C206.518 51.352 206.174 51.648 205.838 52.24H205.55ZM218.476 38.92C217.628 38.92 217.02 38.704 216.652 38.272C216.3 37.84 216.124 37.304 216.124 36.664C216.124 36.024 216.316 35.496 216.7 35.08C217.1 34.664 217.7 34.456 218.5 34.456C219.3 34.456 219.908 34.648 220.324 35.032C220.74 35.4 220.948 35.936 220.948 36.64C220.948 37.328 220.748 37.88 220.348 38.296C219.948 38.712 219.324 38.92 218.476 38.92ZM214.852 40.576H220.732V51.568H222.076V52H214.948V51.568H216.268V41.008H214.852V40.576ZM223.309 48.568V41.008H221.989V40.576H223.309V37.48L227.773 36.376V40.576H230.893V41.008H227.773V49.096C227.773 49.848 227.845 50.4 227.989 50.752C228.149 51.104 228.469 51.28 228.949 51.28C229.429 51.28 229.845 51.04 230.197 50.56C230.565 50.08 230.805 49.424 230.917 48.592L231.325 48.64C231.197 49.744 230.845 50.624 230.269 51.28C229.693 51.92 228.741 52.24 227.413 52.24C226.085 52.24 225.069 51.976 224.365 51.448C223.661 50.92 223.309 49.96 223.309 48.568Z" fill="black" fill-opacity="0.8"/>
<rect x="405" width="326" height="85" rx="34" fill="#C3D7F1"/>
<path d="M475.415 35.2H482.903V35.656H481.511V43.096H486.287V35.656H484.871V35.2H492.383V35.656H490.967V51.544H492.383V52H484.871V51.544H486.287V43.72H481.511V51.544H482.903V52H475.415V51.544H476.831V35.656H475.415V35.2ZM500.423 47.272V45.232C500.423 43.68 500.335 42.552 500.159 41.848C499.999 41.128 499.615 40.768 499.007 40.768C498.655 40.768 498.367 40.872 498.143 41.08C497.935 41.272 497.783 41.6 497.687 42.064C497.543 42.784 497.471 43.88 497.471 45.352V47.224C497.471 48.968 497.519 50.016 497.615 50.368C497.727 50.72 497.839 51.008 497.951 51.232C498.127 51.616 498.471 51.808 498.983 51.808C499.607 51.808 500.015 51.448 500.207 50.728C500.351 50.216 500.423 49.064 500.423 47.272ZM498.935 52.24C496.935 52.24 495.423 51.728 494.399 50.704C493.375 49.68 492.863 48.216 492.863 46.312C492.863 44.392 493.407 42.92 494.495 41.896C495.599 40.856 497.143 40.336 499.127 40.336C501.111 40.336 502.591 40.816 503.567 41.776C504.543 42.72 505.031 44.168 505.031 46.12C505.031 50.2 502.999 52.24 498.935 52.24ZM505.247 40.576H511.031V42.784C511.559 41.152 512.719 40.336 514.511 40.336C516.319 40.336 517.415 41.2 517.799 42.928C518.359 41.2 519.535 40.336 521.327 40.336C523.679 40.336 524.855 41.672 524.855 44.344V51.568H526.199V52H519.551V51.568H520.391V43.768C520.391 42.552 520.287 41.84 520.079 41.632C519.983 41.536 519.855 41.488 519.695 41.488C519.231 41.488 518.823 41.8 518.471 42.424C518.119 43.048 517.943 43.84 517.943 44.8V51.568H518.807V52H512.639V51.568H513.479V43.768C513.479 42.552 513.375 41.84 513.167 41.632C513.071 41.536 512.943 41.488 512.783 41.488C512.335 41.488 511.927 41.832 511.559 42.52C511.207 43.192 511.031 44 511.031 44.944V51.568H511.895V52H505.247V51.568H506.567V41.008H505.247V40.576ZM532.407 52.24C530.343 52.24 528.791 51.712 527.751 50.656C526.727 49.584 526.215 48.104 526.215 46.216C526.215 44.312 526.791 42.856 527.943 41.848C529.111 40.84 530.591 40.336 532.383 40.336C536.015 40.336 537.759 42.16 537.615 45.808H530.847V46.744C530.847 48.312 531.047 49.496 531.447 50.296C531.847 51.096 532.543 51.496 533.535 51.496C535.391 51.496 536.607 50.504 537.183 48.52L537.615 48.592C537.311 49.744 536.759 50.64 535.959 51.28C535.175 51.92 533.991 52.24 532.407 52.24ZM530.871 45.328H533.343V44.152C533.343 42.856 533.263 41.976 533.103 41.512C532.959 41.032 532.655 40.792 532.191 40.792C531.743 40.792 531.407 41.048 531.183 41.56C530.975 42.056 530.871 42.92 530.871 44.152V45.328ZM554.783 35.2H561.191V35.656H559.871V51.544H561.191V52H553.871V51.544H555.191V36.544H555.095L551.495 52H548.495L544.271 36.472H544.175V51.544H545.495V52H542.231V51.544H543.551V35.656H542.231V35.2H548.711L551.903 47.56L554.783 35.2ZM567.883 52.24C565.819 52.24 564.267 51.712 563.227 50.656C562.203 49.584 561.691 48.104 561.691 46.216C561.691 44.312 562.267 42.856 563.419 41.848C564.587 40.84 566.067 40.336 567.859 40.336C571.491 40.336 573.235 42.16 573.091 45.808H566.323V46.744C566.323 48.312 566.523 49.496 566.923 50.296C567.323 51.096 568.019 51.496 569.011 51.496C570.867 51.496 572.083 50.504 572.659 48.52L573.091 48.592C572.787 49.744 572.235 50.64 571.435 51.28C570.651 51.92 569.467 52.24 567.883 52.24ZM566.347 45.328H568.819V44.152C568.819 42.856 568.739 41.976 568.579 41.512C568.435 41.032 568.131 40.792 567.667 40.792C567.219 40.792 566.883 41.048 566.659 41.56C566.451 42.056 566.347 42.92 566.347 44.152V45.328ZM578.362 47.032C578.362 48.712 578.45 49.832 578.626 50.392C578.802 50.936 579.122 51.208 579.586 51.208C580.066 51.208 580.474 51 580.81 50.584C581.162 50.168 581.338 49.552 581.338 48.736V43.504C581.338 42.816 581.202 42.232 580.93 41.752C580.658 41.272 580.258 41.032 579.73 41.032C579.202 41.032 578.842 41.384 578.65 42.088C578.458 42.792 578.362 44.024 578.362 45.784V47.032ZM581.65 52L581.386 50.32C580.842 51.6 579.738 52.24 578.074 52.24C576.698 52.24 575.626 51.744 574.858 50.752C574.106 49.76 573.73 48.28 573.73 46.312C573.73 42.328 575.314 40.336 578.482 40.336C579.89 40.336 580.818 40.728 581.266 41.512V34.432H579.802V34H585.802V51.568H586.978V52H581.65ZM590.671 38.92C589.823 38.92 589.215 38.704 588.847 38.272C588.495 37.84 588.319 37.304 588.319 36.664C588.319 36.024 588.511 35.496 588.895 35.08C589.295 34.664 589.895 34.456 590.695 34.456C591.495 34.456 592.103 34.648 592.519 35.032C592.935 35.4 593.143 35.936 593.143 36.64C593.143 37.328 592.943 37.88 592.543 38.296C592.143 38.712 591.519 38.92 590.671 38.92ZM587.047 40.576H592.927V51.568H594.271V52H587.143V51.568H588.463V41.008H587.047V40.576ZM601.025 40.768C600.321 40.768 599.817 41.152 599.513 41.92C599.209 42.688 599.057 43.96 599.057 45.736V46.984C599.057 48.568 599.233 49.704 599.585 50.392C599.937 51.08 600.585 51.424 601.529 51.424C602.473 51.424 603.225 51.104 603.785 50.464C604.345 49.824 604.705 49.096 604.865 48.28L605.297 48.328C604.993 49.704 604.433 50.696 603.617 51.304C602.785 51.928 601.641 52.24 600.185 52.24C598.329 52.24 596.905 51.744 595.913 50.752C594.921 49.744 594.425 48.28 594.425 46.36C594.425 44.424 594.985 42.936 596.105 41.896C597.241 40.856 598.817 40.336 600.833 40.336C602.257 40.336 603.345 40.616 604.097 41.176C604.849 41.72 605.225 42.408 605.225 43.24C605.225 44.072 605.041 44.68 604.673 45.064C604.321 45.448 603.825 45.64 603.185 45.64C602.561 45.64 602.057 45.472 601.673 45.136C601.289 44.8 601.097 44.304 601.097 43.648C601.097 43.36 601.137 43.072 601.217 42.784H602.009C602.121 42.464 602.177 42.176 602.177 41.92C602.177 41.152 601.793 40.768 601.025 40.768ZM611.21 46.36H611.906V44.512C611.906 42.992 611.818 41.976 611.642 41.464C611.482 40.936 611.162 40.672 610.682 40.672C610.394 40.672 610.13 40.752 609.89 40.912C609.666 41.056 609.554 41.264 609.554 41.536C609.554 41.792 609.602 42.056 609.698 42.328H610.298C610.426 42.664 610.49 43.072 610.49 43.552C610.49 44.016 610.29 44.424 609.89 44.776C609.49 45.112 608.986 45.28 608.378 45.28C607.002 45.28 606.314 44.616 606.314 43.288C606.314 41.32 607.986 40.336 611.33 40.336C613.234 40.336 614.546 40.664 615.266 41.32C616.002 41.96 616.37 43.144 616.37 44.872V49.744C616.37 50.576 616.602 50.992 617.066 50.992C617.61 50.992 617.93 50.168 618.026 48.52L618.386 48.544C618.322 49.952 618.058 50.92 617.594 51.448C617.13 51.976 616.37 52.24 615.314 52.24C613.394 52.24 612.29 51.648 612.002 50.464C611.794 51.072 611.482 51.52 611.066 51.808C610.65 52.096 610.042 52.24 609.242 52.24C606.874 52.24 605.69 51.272 605.69 49.336C605.69 48.2 606.138 47.424 607.034 47.008C607.946 46.576 609.338 46.36 611.21 46.36ZM610.25 49.312C610.25 50.144 610.29 50.68 610.37 50.92C610.466 51.16 610.634 51.28 610.874 51.28C611.13 51.28 611.362 51.08 611.57 50.68C611.794 50.264 611.906 49.696 611.906 48.976V46.744H611.738C610.746 46.744 610.25 47.472 610.25 48.928V49.312ZM619.014 48.568V41.008H617.694V40.576H619.014V37.48L623.478 36.376V40.576H626.598V41.008H623.478V49.096C623.478 49.848 623.55 50.4 623.694 50.752C623.854 51.104 624.174 51.28 624.654 51.28C625.134 51.28 625.55 51.04 625.902 50.56C626.27 50.08 626.51 49.424 626.622 48.592L627.03 48.64C626.902 49.744 626.55 50.624 625.974 51.28C625.398 51.92 624.446 52.24 623.118 52.24C621.79 52.24 620.774 51.976 620.07 51.448C619.366 50.92 619.014 49.96 619.014 48.568ZM630.332 38.92C629.484 38.92 628.876 38.704 628.508 38.272C628.156 37.84 627.98 37.304 627.98 36.664C627.98 36.024 628.172 35.496 628.556 35.08C628.956 34.664 629.556 34.456 630.356 34.456C631.156 34.456 631.764 34.648 632.18 35.032C632.596 35.4 632.804 35.936 632.804 36.64C632.804 37.328 632.604 37.88 632.204 38.296C631.804 38.712 631.18 38.92 630.332 38.92ZM626.708 40.576H632.588V51.568H633.932V52H626.804V51.568H628.124V41.008H626.708V40.576ZM641.717 47.272V45.232C641.717 43.68 641.629 42.552 641.453 41.848C641.293 41.128 640.909 40.768 640.301 40.768C639.949 40.768 639.661 40.872 639.437 41.08C639.229 41.272 639.077 41.6 638.981 42.064C638.837 42.784 638.765 43.88 638.765 45.352V47.224C638.765 48.968 638.813 50.016 638.909 50.368C639.021 50.72 639.133 51.008 639.245 51.232C639.421 51.616 639.765 51.808 640.277 51.808C640.901 51.808 641.309 51.448 641.501 50.728C641.645 50.216 641.717 49.064 641.717 47.272ZM640.229 52.24C638.229 52.24 636.717 51.728 635.693 50.704C634.669 49.68 634.157 48.216 634.157 46.312C634.157 44.392 634.701 42.92 635.789 41.896C636.893 40.856 638.437 40.336 640.421 40.336C642.405 40.336 643.885 40.816 644.861 41.776C645.837 42.72 646.325 44.168 646.325 46.12C646.325 50.2 644.293 52.24 640.229 52.24ZM646.588 40.576H652.372V42.784C652.628 42.048 653.02 41.456 653.548 41.008C654.076 40.56 654.876 40.336 655.948 40.336C658.428 40.336 659.668 41.672 659.668 44.344V51.568H661.012V52H654.22V51.568H655.204V43.768C655.204 42.808 655.14 42.192 655.012 41.92C654.884 41.632 654.652 41.488 654.316 41.488C653.804 41.488 653.348 41.824 652.948 42.496C652.564 43.168 652.372 43.984 652.372 44.944V51.568H653.404V52H646.588V51.568H647.908V41.008H646.588V40.576Z" fill="black" fill-opacity="0.8"/>
<rect x="810" width="326" height="85" rx="34" fill="#C3D7F1"/>
<path d="M908.531 35.416C906.051 35.416 904.811 37.808 904.811 42.592V44.488C904.811 46.76 905.139 48.544 905.795 49.84C906.451 51.12 907.419 51.76 908.699 51.76C910.459 51.76 912.075 50.048 913.547 46.624H913.979L913.811 51.976H913.547C913.451 51.8 913.363 51.68 913.283 51.616C913.203 51.536 913.083 51.496 912.923 51.496C912.779 51.496 912.203 51.624 911.195 51.88C910.187 52.12 909.163 52.24 908.123 52.24C905.515 52.24 903.491 51.536 902.051 50.128C900.627 48.72 899.915 46.608 899.915 43.792C899.915 40.96 900.659 38.776 902.147 37.24C903.651 35.704 905.667 34.936 908.195 34.936C909.171 34.936 910.123 35.064 911.051 35.32C911.995 35.56 912.547 35.68 912.707 35.68C912.867 35.68 912.987 35.648 913.067 35.584C913.147 35.504 913.235 35.376 913.331 35.2H913.595L913.787 40.408H913.355C912.635 38.792 911.891 37.56 911.123 36.712C910.371 35.848 909.507 35.416 908.531 35.416ZM915.286 34H921.07V42.784C921.326 42.048 921.718 41.456 922.246 41.008C922.774 40.56 923.574 40.336 924.646 40.336C927.126 40.336 928.366 41.672 928.366 44.344V51.568H929.71V52H922.918V51.568H923.902V43.768C923.902 42.808 923.838 42.192 923.71 41.92C923.582 41.632 923.35 41.488 923.014 41.488C922.502 41.488 922.046 41.824 921.646 42.496C921.262 43.168 921.07 43.984 921.07 44.944V51.568H922.102V52H915.286V51.568H916.606V34.432H915.286V34ZM935.379 46.36H936.075V44.512C936.075 42.992 935.987 41.976 935.811 41.464C935.651 40.936 935.331 40.672 934.851 40.672C934.563 40.672 934.299 40.752 934.059 40.912C933.835 41.056 933.723 41.264 933.723 41.536C933.723 41.792 933.771 42.056 933.867 42.328H934.467C934.595 42.664 934.659 43.072 934.659 43.552C934.659 44.016 934.459 44.424 934.059 44.776C933.659 45.112 933.155 45.28 932.547 45.28C931.171 45.28 930.483 44.616 930.483 43.288C930.483 41.32 932.155 40.336 935.499 40.336C937.403 40.336 938.715 40.664 939.435 41.32C940.171 41.96 940.539 43.144 940.539 44.872V49.744C940.539 50.576 940.771 50.992 941.235 50.992C941.779 50.992 942.099 50.168 942.195 48.52L942.555 48.544C942.491 49.952 942.227 50.92 941.763 51.448C941.299 51.976 940.539 52.24 939.483 52.24C937.563 52.24 936.459 51.648 936.171 50.464C935.963 51.072 935.651 51.52 935.235 51.808C934.819 52.096 934.211 52.24 933.411 52.24C931.043 52.24 929.859 51.272 929.859 49.336C929.859 48.2 930.307 47.424 931.203 47.008C932.115 46.576 933.507 46.36 935.379 46.36ZM934.419 49.312C934.419 50.144 934.459 50.68 934.539 50.92C934.635 51.16 934.803 51.28 935.043 51.28C935.299 51.28 935.531 51.08 935.739 50.68C935.963 50.264 936.075 49.696 936.075 48.976V46.744H935.907C934.915 46.744 934.419 47.472 934.419 48.928V49.312ZM942.383 40.576H948.167V42.784C948.423 42.048 948.815 41.456 949.343 41.008C949.871 40.56 950.671 40.336 951.743 40.336C954.223 40.336 955.463 41.672 955.463 44.344V51.568H956.807V52H950.015V51.568H950.999V43.768C950.999 42.808 950.935 42.192 950.807 41.92C950.679 41.632 950.447 41.488 950.111 41.488C949.599 41.488 949.143 41.824 948.743 42.496C948.359 43.168 948.167 43.984 948.167 44.944V51.568H949.199V52H942.383V51.568H943.703V41.008H942.383V40.576ZM966.292 39.328L966.964 38.92C967.06 38.424 966.868 38.176 966.388 38.176C965.7 38.176 965.356 38.704 965.356 39.76C965.356 40.176 965.412 40.656 965.524 41.2C966.74 42.016 967.348 43.064 967.348 44.344C967.348 45.608 966.908 46.592 966.028 47.296C965.148 48 963.956 48.352 962.452 48.352C961.828 48.352 961.18 48.288 960.508 48.16C959.804 48.608 959.452 48.944 959.452 49.168C959.452 49.392 959.964 49.504 960.988 49.504H963.436C967.068 49.504 968.884 50.808 968.884 53.416C968.884 54.824 968.332 55.936 967.228 56.752C966.14 57.584 964.436 58 962.116 58C958.164 58 956.188 57.144 956.188 55.432C956.188 54.504 956.804 53.864 958.036 53.512L959.476 54.16C959.348 54.624 959.284 55.064 959.284 55.48C959.284 56.856 960.308 57.544 962.356 57.544C963.604 57.544 964.564 57.312 965.236 56.848C965.908 56.384 966.244 55.808 966.244 55.12C966.244 54.432 966.036 53.968 965.62 53.728C965.22 53.504 964.412 53.392 963.196 53.392H960.868C959.572 53.392 958.644 53.176 958.084 52.744C957.524 52.312 957.244 51.784 957.244 51.16C957.244 50.52 957.444 49.992 957.844 49.576C958.244 49.144 958.956 48.616 959.98 47.992C958.124 47.464 957.196 46.248 957.196 44.344C957.196 43.144 957.628 42.176 958.492 41.44C959.356 40.704 960.652 40.336 962.38 40.336C963.42 40.336 964.308 40.536 965.044 40.936C964.948 40.504 964.9 40.112 964.9 39.76C964.9 38.864 965.14 38.216 965.62 37.816C966.1 37.416 966.636 37.216 967.228 37.216C967.82 37.216 968.292 37.376 968.644 37.696C969.012 38 969.196 38.424 969.196 38.968C969.196 39.512 969.052 39.92 968.764 40.192C968.476 40.448 968.124 40.576 967.708 40.576C967.308 40.576 966.972 40.472 966.7 40.264C966.444 40.04 966.308 39.728 966.292 39.328ZM961.204 43.816V45.112C961.204 46.184 961.292 46.912 961.468 47.296C961.66 47.68 961.94 47.872 962.308 47.872C962.692 47.872 962.964 47.688 963.124 47.32C963.3 46.936 963.388 46.16 963.388 44.992V43.816C963.388 42.568 963.308 41.752 963.148 41.368C962.988 40.968 962.716 40.768 962.332 40.768C961.964 40.768 961.684 40.976 961.492 41.392C961.3 41.792 961.204 42.6 961.204 43.816ZM974.336 52.24C972.272 52.24 970.72 51.712 969.68 50.656C968.656 49.584 968.144 48.104 968.144 46.216C968.144 44.312 968.72 42.856 969.872 41.848C971.04 40.84 972.52 40.336 974.312 40.336C977.944 40.336 979.688 42.16 979.544 45.808H972.776V46.744C972.776 48.312 972.976 49.496 973.376 50.296C973.776 51.096 974.472 51.496 975.464 51.496C977.32 51.496 978.536 50.504 979.112 48.52L979.544 48.592C979.24 49.744 978.688 50.64 977.888 51.28C977.104 51.92 975.92 52.24 974.336 52.24ZM972.8 45.328H975.272V44.152C975.272 42.856 975.192 41.976 975.032 41.512C974.888 41.032 974.584 40.792 974.12 40.792C973.672 40.792 973.336 41.048 973.112 41.56C972.904 42.056 972.8 42.92 972.8 44.152V45.328ZM993.16 35.416C990.68 35.416 989.44 37.808 989.44 42.592V44.488C989.44 46.76 989.768 48.544 990.424 49.84C991.08 51.12 992.048 51.76 993.328 51.76C995.088 51.76 996.704 50.048 998.176 46.624H998.608L998.44 51.976H998.176C998.08 51.8 997.992 51.68 997.912 51.616C997.832 51.536 997.712 51.496 997.552 51.496C997.408 51.496 996.832 51.624 995.824 51.88C994.816 52.12 993.792 52.24 992.752 52.24C990.144 52.24 988.12 51.536 986.68 50.128C985.256 48.72 984.544 46.608 984.544 43.792C984.544 40.96 985.288 38.776 986.776 37.24C988.28 35.704 990.296 34.936 992.824 34.936C993.8 34.936 994.752 35.064 995.68 35.32C996.624 35.56 997.176 35.68 997.336 35.68C997.496 35.68 997.616 35.648 997.696 35.584C997.776 35.504 997.864 35.376 997.96 35.2H998.224L998.416 40.408H997.984C997.264 38.792 996.52 37.56 995.752 36.712C995 35.848 994.136 35.416 993.16 35.416ZM999.818 34H1005.7V51.568H1007.04V52H999.914V51.568H1001.23V34.432H999.818V34ZM1010.58 38.92C1009.73 38.92 1009.12 38.704 1008.76 38.272C1008.4 37.84 1008.23 37.304 1008.23 36.664C1008.23 36.024 1008.42 35.496 1008.8 35.08C1009.2 34.664 1009.8 34.456 1010.6 34.456C1011.4 34.456 1012.01 34.648 1012.43 35.032C1012.84 35.4 1013.05 35.936 1013.05 36.64C1013.05 37.328 1012.85 37.88 1012.45 38.296C1012.05 38.712 1011.43 38.92 1010.58 38.92ZM1006.96 40.576H1012.84V51.568H1014.18V52H1007.05V51.568H1008.37V41.008H1006.96V40.576ZM1014.26 40.576H1020.04V42.784C1020.3 42.048 1020.69 41.456 1021.22 41.008C1021.75 40.56 1022.55 40.336 1023.62 40.336C1026.1 40.336 1027.34 41.672 1027.34 44.344V51.568H1028.68V52H1021.89V51.568H1022.88V43.768C1022.88 42.808 1022.81 42.192 1022.68 41.92C1022.56 41.632 1022.32 41.488 1021.99 41.488C1021.48 41.488 1021.02 41.824 1020.62 42.496C1020.24 43.168 1020.04 43.984 1020.04 44.944V51.568H1021.08V52H1014.26V51.568H1015.58V41.008H1014.26V40.576ZM1032.07 38.92C1031.23 38.92 1030.62 38.704 1030.25 38.272C1029.9 37.84 1029.72 37.304 1029.72 36.664C1029.72 36.024 1029.91 35.496 1030.3 35.08C1030.7 34.664 1031.3 34.456 1032.1 34.456C1032.9 34.456 1033.51 34.648 1033.92 35.032C1034.34 35.4 1034.55 35.936 1034.55 36.64C1034.55 37.328 1034.35 37.88 1033.95 38.296C1033.55 38.712 1032.92 38.92 1032.07 38.92ZM1028.45 40.576H1034.33V51.568H1035.67V52H1028.55V51.568H1029.87V41.008H1028.45V40.576ZM1042.43 40.768C1041.72 40.768 1041.22 41.152 1040.92 41.92C1040.61 42.688 1040.46 43.96 1040.46 45.736V46.984C1040.46 48.568 1040.64 49.704 1040.99 50.392C1041.34 51.08 1041.99 51.424 1042.93 51.424C1043.88 51.424 1044.63 51.104 1045.19 50.464C1045.75 49.824 1046.11 49.096 1046.27 48.28L1046.7 48.328C1046.4 49.704 1045.84 50.696 1045.02 51.304C1044.19 51.928 1043.04 52.24 1041.59 52.24C1039.73 52.24 1038.31 51.744 1037.32 50.752C1036.32 49.744 1035.83 48.28 1035.83 46.36C1035.83 44.424 1036.39 42.936 1037.51 41.896C1038.64 40.856 1040.22 40.336 1042.24 40.336C1043.66 40.336 1044.75 40.616 1045.5 41.176C1046.25 41.72 1046.63 42.408 1046.63 43.24C1046.63 44.072 1046.44 44.68 1046.08 45.064C1045.72 45.448 1045.23 45.64 1044.59 45.64C1043.96 45.64 1043.46 45.472 1043.08 45.136C1042.69 44.8 1042.5 44.304 1042.5 43.648C1042.5 43.36 1042.54 43.072 1042.62 42.784H1043.41C1043.52 42.464 1043.58 42.176 1043.58 41.92C1043.58 41.152 1043.2 40.768 1042.43 40.768Z" fill="black" fill-opacity="0.8"/>
<rect x="405" y="238" width="326" height="85" rx="34" fill="#C3D7F1"/>
<path d="M536.653 273.2H543.061V273.656H541.741V289.544H543.061V290H535.741V289.544H537.061V274.544H536.965L533.365 290H530.365L526.141 274.472H526.045V289.544H527.365V290H524.101V289.544H525.421V273.656H524.101V273.2H530.581L533.773 285.56L536.653 273.2ZM549.753 290.24C547.689 290.24 546.137 289.712 545.097 288.656C544.073 287.584 543.561 286.104 543.561 284.216C543.561 282.312 544.137 280.856 545.289 279.848C546.457 278.84 547.937 278.336 549.729 278.336C553.361 278.336 555.105 280.16 554.961 283.808H548.193V284.744C548.193 286.312 548.393 287.496 548.793 288.296C549.193 289.096 549.889 289.496 550.881 289.496C552.737 289.496 553.953 288.504 554.529 286.52L554.961 286.592C554.657 287.744 554.105 288.64 553.305 289.28C552.521 289.92 551.337 290.24 549.753 290.24ZM548.217 283.328H550.689V282.152C550.689 280.856 550.609 279.976 550.449 279.512C550.305 279.032 550.001 278.792 549.537 278.792C549.089 278.792 548.753 279.048 548.529 279.56C548.321 280.056 548.217 280.92 548.217 282.152V283.328ZM560.232 285.032C560.232 286.712 560.32 287.832 560.496 288.392C560.672 288.936 560.992 289.208 561.456 289.208C561.936 289.208 562.344 289 562.68 288.584C563.032 288.168 563.208 287.552 563.208 286.736V281.504C563.208 280.816 563.072 280.232 562.8 279.752C562.528 279.272 562.128 279.032 561.6 279.032C561.072 279.032 560.712 279.384 560.52 280.088C560.328 280.792 560.232 282.024 560.232 283.784V285.032ZM563.52 290L563.256 288.32C562.712 289.6 561.608 290.24 559.944 290.24C558.568 290.24 557.496 289.744 556.728 288.752C555.976 287.76 555.6 286.28 555.6 284.312C555.6 280.328 557.184 278.336 560.352 278.336C561.76 278.336 562.688 278.728 563.136 279.512V272.432H561.672V272H567.672V289.568H568.848V290H563.52ZM572.541 276.92C571.693 276.92 571.085 276.704 570.717 276.272C570.365 275.84 570.189 275.304 570.189 274.664C570.189 274.024 570.381 273.496 570.765 273.08C571.165 272.664 571.765 272.456 572.565 272.456C573.365 272.456 573.973 272.648 574.389 273.032C574.805 273.4 575.013 273.936 575.013 274.64C575.013 275.328 574.813 275.88 574.413 276.296C574.013 276.712 573.389 276.92 572.541 276.92ZM568.917 278.576H574.797V289.568H576.141V290H569.013V289.568H570.333V279.008H568.917V278.576ZM581.935 284.36H582.631V282.512C582.631 280.992 582.543 279.976 582.367 279.464C582.207 278.936 581.887 278.672 581.407 278.672C581.119 278.672 580.855 278.752 580.615 278.912C580.391 279.056 580.279 279.264 580.279 279.536C580.279 279.792 580.327 280.056 580.423 280.328H581.023C581.151 280.664 581.215 281.072 581.215 281.552C581.215 282.016 581.015 282.424 580.615 282.776C580.215 283.112 579.711 283.28 579.103 283.28C577.727 283.28 577.039 282.616 577.039 281.288C577.039 279.32 578.711 278.336 582.055 278.336C583.959 278.336 585.271 278.664 585.991 279.32C586.727 279.96 587.095 281.144 587.095 282.872V287.744C587.095 288.576 587.327 288.992 587.791 288.992C588.335 288.992 588.655 288.168 588.751 286.52L589.111 286.544C589.047 287.952 588.783 288.92 588.319 289.448C587.855 289.976 587.095 290.24 586.039 290.24C584.119 290.24 583.015 289.648 582.727 288.464C582.519 289.072 582.207 289.52 581.791 289.808C581.375 290.096 580.767 290.24 579.967 290.24C577.599 290.24 576.415 289.272 576.415 287.336C576.415 286.2 576.863 285.424 577.759 285.008C578.671 284.576 580.063 284.36 581.935 284.36ZM580.975 287.312C580.975 288.144 581.015 288.68 581.095 288.92C581.191 289.16 581.359 289.28 581.599 289.28C581.855 289.28 582.087 289.08 582.295 288.68C582.519 288.264 582.631 287.696 582.631 286.976V284.744H582.463C581.471 284.744 580.975 285.472 580.975 286.928V287.312ZM596.906 279.248C596.314 279.248 595.794 279.632 595.346 280.4C594.898 281.168 594.674 282.08 594.674 283.136V289.568H596.378V290H588.89V289.568H590.21V279.008H588.89V278.576H594.674V280.88C594.882 280.064 595.282 279.44 595.874 279.008C596.466 278.56 597.138 278.336 597.89 278.336C598.642 278.336 599.25 278.552 599.714 278.984C600.194 279.4 600.434 280 600.434 280.784C600.434 281.552 600.258 282.144 599.906 282.56C599.554 282.976 599.01 283.184 598.274 283.184C597.554 283.184 597.018 282.944 596.666 282.464C596.33 281.984 596.29 281.32 596.546 280.472H597.41C597.81 279.656 597.642 279.248 596.906 279.248ZM599.846 279.008V278.576H606.806V279.008H605.51L608.126 286.976L610.91 279.008H609.302V278.576H612.686V279.008H611.486L606.998 291.944C606.47 293.448 605.878 294.496 605.222 295.088C604.566 295.696 603.766 296 602.822 296C601.878 296 601.134 295.784 600.59 295.352C600.046 294.92 599.774 294.368 599.774 293.696C599.774 293.024 599.95 292.512 600.302 292.16C600.654 291.808 601.118 291.632 601.694 291.632C603.022 291.632 603.686 292.184 603.686 293.288C603.686 293.528 603.638 293.816 603.542 294.152H602.702C602.574 294.52 602.558 294.824 602.654 295.064C602.75 295.304 602.966 295.424 603.302 295.424C603.958 295.424 604.542 295.096 605.054 294.44C605.566 293.8 606.054 292.816 606.518 291.488L607.046 290H604.934L600.83 279.008H599.846Z" fill="black" fill-opacity="0.8"/>
<path d="M973 151.798L973 263.126C973 274.654 963.654 284 952.126 284L776.437 284" stroke="#5856D6" stroke-width="3.47898" stroke-linecap="round"/>
<rect opacity="0.4" width="69.5797" height="69.5797" rx="34.7898" transform="matrix(-1 0 0 1 1007.79 117.21)" fill="#5856D6"/>
<rect x="-1.73949" y="1.73949" width="66.1007" height="66.1007" rx="33.0504" transform="matrix(-1 0 0 1 1004.31 117.21)" stroke="#5856D6" stroke-width="3.47898"/>
<circle cx="10.437" cy="10.437" r="7.82771" transform="matrix(-1 0 0 1 983.437 141.563)" fill="white" stroke="#5856D6" stroke-width="5.21848"/>
<path d="M777.74 284L803.832 284" stroke="#5856D6" stroke-width="3.47898" stroke-linecap="round"/>
<path d="M789.916 297.916L776 284L789.916 270.084" stroke="#5856D6" stroke-width="3.47898" stroke-linecap="round" stroke-linejoin="round"/>
<path d="M325.689 276L170.874 276C159.346 276 150 266.654 150 255.126L150 112.488" stroke="#5856D6" stroke-width="3.47898" stroke-linecap="round"/>
<rect opacity="0.4" width="69.5797" height="69.5797" rx="34.7898" transform="matrix(0 -1 -1 0 360.79 310.79)" fill="#5856D6"/>
<rect x="-1.73949" y="-1.73949" width="66.1007" height="66.1007" rx="33.0504" transform="matrix(0 -1 -1 0 357.311 307.311)" stroke="#5856D6" stroke-width="3.47898"/>
<circle cx="10.437" cy="10.437" r="7.82771" transform="matrix(0 -1 -1 0 336.437 286.437)" fill="white" stroke="#5856D6" stroke-width="5.21848"/>
<path d="M150 114.739L150 140.832" stroke="#5856D6" stroke-width="3.47898" stroke-linecap="round"/>
<path d="M136.084 126.916L150 113L163.916 126.916" stroke="#5856D6" stroke-width="3.47898" stroke-linecap="round" stroke-linejoin="round"/>
</svg>
