<svg width="1136" height="253" viewBox="0 0 1136 253" fill="none" xmlns="http://www.w3.org/2000/svg">
<rect width="326" height="85" rx="34" fill="#C3D7F1"/>
<path d="M107.837 35.2H114.245V35.656H112.925V51.544H114.245V52H106.925V51.544H108.245V36.544H108.149L104.549 52H101.549L97.3252 36.472H97.2292V51.544H98.5492V52H95.2852V51.544H96.6052V35.656H95.2852V35.2H101.765L104.957 47.56L107.837 35.2ZM120.937 52.24C118.873 52.24 117.321 51.712 116.281 50.656C115.257 49.584 114.745 48.104 114.745 46.216C114.745 44.312 115.321 42.856 116.473 41.848C117.641 40.84 119.121 40.336 120.913 40.336C124.545 40.336 126.289 42.16 126.145 45.808H119.377V46.744C119.377 48.312 119.577 49.496 119.977 50.296C120.377 51.096 121.073 51.496 122.065 51.496C123.921 51.496 125.137 50.504 125.713 48.52L126.145 48.592C125.841 49.744 125.289 50.64 124.489 51.28C123.705 51.92 122.521 52.24 120.937 52.24ZM119.401 45.328H121.873V44.152C121.873 42.856 121.793 41.976 121.633 41.512C121.489 41.032 121.185 40.792 120.721 40.792C120.273 40.792 119.937 41.048 119.713 41.56C119.505 42.056 119.401 42.92 119.401 44.152V45.328ZM131.416 47.032C131.416 48.712 131.504 49.832 131.68 50.392C131.856 50.936 132.176 51.208 132.64 51.208C133.12 51.208 133.528 51 133.864 50.584C134.216 50.168 134.392 49.552 134.392 48.736V43.504C134.392 42.816 134.256 42.232 133.984 41.752C133.712 41.272 133.312 41.032 132.784 41.032C132.256 41.032 131.896 41.384 131.704 42.088C131.512 42.792 131.416 44.024 131.416 45.784V47.032ZM134.704 52L134.44 50.32C133.896 51.6 132.792 52.24 131.128 52.24C129.752 52.24 128.68 51.744 127.912 50.752C127.16 49.76 126.784 48.28 126.784 46.312C126.784 42.328 128.368 40.336 131.536 40.336C132.944 40.336 133.872 40.728 134.32 41.512V34.432H132.856V34H138.856V51.568H140.032V52H134.704ZM143.726 38.92C142.878 38.92 142.27 38.704 141.902 38.272C141.55 37.84 141.374 37.304 141.374 36.664C141.374 36.024 141.566 35.496 141.95 35.08C142.35 34.664 142.95 34.456 143.75 34.456C144.55 34.456 145.158 34.648 145.574 35.032C145.99 35.4 146.198 35.936 146.198 36.64C146.198 37.328 145.998 37.88 145.598 38.296C145.198 38.712 144.574 38.92 143.726 38.92ZM140.102 40.576H145.982V51.568H147.326V52H140.198V51.568H141.518V41.008H140.102V40.576ZM154.079 40.768C153.375 40.768 152.871 41.152 152.567 41.92C152.263 42.688 152.111 43.96 152.111 45.736V46.984C152.111 48.568 152.287 49.704 152.639 50.392C152.991 51.08 153.639 51.424 154.583 51.424C155.527 51.424 156.279 51.104 156.839 50.464C157.399 49.824 157.759 49.096 157.919 48.28L158.351 48.328C158.047 49.704 157.487 50.696 156.671 51.304C155.839 51.928 154.695 52.24 153.239 52.24C151.383 52.24 149.959 51.744 148.967 50.752C147.975 49.744 147.479 48.28 147.479 46.36C147.479 44.424 148.039 42.936 149.159 41.896C150.295 40.856 151.871 40.336 153.887 40.336C155.311 40.336 156.399 40.616 157.151 41.176C157.903 41.72 158.279 42.408 158.279 43.24C158.279 44.072 158.095 44.68 157.727 45.064C157.375 45.448 156.879 45.64 156.239 45.64C155.615 45.64 155.111 45.472 154.727 45.136C154.343 44.8 154.151 44.304 154.151 43.648C154.151 43.36 154.191 43.072 154.271 42.784H155.063C155.175 42.464 155.231 42.176 155.231 41.92C155.231 41.152 154.847 40.768 154.079 40.768ZM164.265 46.36H164.961V44.512C164.961 42.992 164.873 41.976 164.697 41.464C164.537 40.936 164.217 40.672 163.737 40.672C163.449 40.672 163.185 40.752 162.945 40.912C162.721 41.056 162.609 41.264 162.609 41.536C162.609 41.792 162.657 42.056 162.753 42.328H163.353C163.481 42.664 163.545 43.072 163.545 43.552C163.545 44.016 163.345 44.424 162.945 44.776C162.545 45.112 162.041 45.28 161.433 45.28C160.057 45.28 159.369 44.616 159.369 43.288C159.369 41.32 161.041 40.336 164.385 40.336C166.289 40.336 167.601 40.664 168.321 41.32C169.057 41.96 169.425 43.144 169.425 44.872V49.744C169.425 50.576 169.657 50.992 170.121 50.992C170.665 50.992 170.985 50.168 171.081 48.52L171.441 48.544C171.377 49.952 171.113 50.92 170.649 51.448C170.185 51.976 169.425 52.24 168.369 52.24C166.449 52.24 165.345 51.648 165.057 50.464C164.849 51.072 164.537 51.52 164.121 51.808C163.705 52.096 163.097 52.24 162.297 52.24C159.929 52.24 158.745 51.272 158.745 49.336C158.745 48.2 159.193 47.424 160.089 47.008C161.001 46.576 162.393 46.36 164.265 46.36ZM163.305 49.312C163.305 50.144 163.345 50.68 163.425 50.92C163.521 51.16 163.689 51.28 163.929 51.28C164.185 51.28 164.417 51.08 164.625 50.68C164.849 50.264 164.961 49.696 164.961 48.976V46.744H164.793C163.801 46.744 163.305 47.472 163.305 48.928V49.312ZM171.124 34H177.004V51.568H178.348V52H171.22V51.568H172.54V34.432H171.124V34ZM192.295 47.656L196.471 35.656H194.599V35.2H198.271V35.656H197.143L191.359 52.24H189.343L183.223 35.656H182.119V35.2H189.967V35.656H188.263L192.295 47.656ZM201.365 38.92C200.517 38.92 199.909 38.704 199.541 38.272C199.189 37.84 199.013 37.304 199.013 36.664C199.013 36.024 199.205 35.496 199.589 35.08C199.989 34.664 200.589 34.456 201.389 34.456C202.189 34.456 202.797 34.648 203.213 35.032C203.629 35.4 203.837 35.936 203.837 36.64C203.837 37.328 203.637 37.88 203.237 38.296C202.837 38.712 202.213 38.92 201.365 38.92ZM197.741 40.576H203.621V51.568H204.965V52H197.837V51.568H199.157V41.008H197.741V40.576ZM205.55 52.24V47.944H205.838C206.254 49.336 206.814 50.312 207.518 50.872C208.222 51.432 209.102 51.712 210.158 51.712C211.79 51.712 212.606 51.192 212.606 50.152C212.606 49.704 212.406 49.368 212.006 49.144C211.382 48.792 210.582 48.52 209.606 48.328C208.518 48.04 207.606 47.656 206.87 47.176C205.99 46.6 205.55 45.688 205.55 44.44C205.55 43.192 205.934 42.2 206.702 41.464C207.47 40.712 208.494 40.336 209.774 40.336C210.558 40.336 211.366 40.52 212.198 40.888C212.502 41.016 212.734 41.08 212.894 41.08C213.054 41.08 213.19 41.024 213.302 40.912C213.414 40.8 213.55 40.592 213.71 40.288H213.974V43.96H213.686C212.87 41.88 211.606 40.84 209.894 40.84C209.142 40.84 208.582 40.976 208.214 41.248C207.846 41.504 207.662 41.832 207.662 42.232C207.662 42.472 207.718 42.664 207.83 42.808C207.942 42.936 208.03 43.032 208.094 43.096C208.158 43.16 208.262 43.232 208.406 43.312C208.55 43.376 208.67 43.432 208.766 43.48C208.862 43.512 209.006 43.56 209.198 43.624C209.406 43.688 209.558 43.728 209.654 43.744C210.742 44.016 211.526 44.256 212.006 44.464C212.486 44.656 212.942 44.896 213.374 45.184C214.254 45.792 214.694 46.776 214.694 48.136C214.694 49.48 214.294 50.504 213.494 51.208C212.694 51.896 211.598 52.24 210.206 52.24C209.214 52.24 208.254 52.008 207.326 51.544C207.134 51.416 206.982 51.352 206.87 51.352C206.518 51.352 206.174 51.648 205.838 52.24H205.55ZM218.476 38.92C217.628 38.92 217.02 38.704 216.652 38.272C216.3 37.84 216.124 37.304 216.124 36.664C216.124 36.024 216.316 35.496 216.7 35.08C217.1 34.664 217.7 34.456 218.5 34.456C219.3 34.456 219.908 34.648 220.324 35.032C220.74 35.4 220.948 35.936 220.948 36.64C220.948 37.328 220.748 37.88 220.348 38.296C219.948 38.712 219.324 38.92 218.476 38.92ZM214.852 40.576H220.732V51.568H222.076V52H214.948V51.568H216.268V41.008H214.852V40.576ZM223.309 48.568V41.008H221.989V40.576H223.309V37.48L227.773 36.376V40.576H230.893V41.008H227.773V49.096C227.773 49.848 227.845 50.4 227.989 50.752C228.149 51.104 228.469 51.28 228.949 51.28C229.429 51.28 229.845 51.04 230.197 50.56C230.565 50.08 230.805 49.424 230.917 48.592L231.325 48.64C231.197 49.744 230.845 50.624 230.269 51.28C229.693 51.92 228.741 52.24 227.413 52.24C226.085 52.24 225.069 51.976 224.365 51.448C223.661 50.92 223.309 49.96 223.309 48.568Z" fill="black" fill-opacity="0.8"/>
<rect x="405" width="326" height="85" rx="34" fill="#C3D7F1"/>
<path d="M475.415 35.2H482.903V35.656H481.511V43.096H486.287V35.656H484.871V35.2H492.383V35.656H490.967V51.544H492.383V52H484.871V51.544H486.287V43.72H481.511V51.544H482.903V52H475.415V51.544H476.831V35.656H475.415V35.2ZM500.423 47.272V45.232C500.423 43.68 500.335 42.552 500.159 41.848C499.999 41.128 499.615 40.768 499.007 40.768C498.655 40.768 498.367 40.872 498.143 41.08C497.935 41.272 497.783 41.6 497.687 42.064C497.543 42.784 497.471 43.88 497.471 45.352V47.224C497.471 48.968 497.519 50.016 497.615 50.368C497.727 50.72 497.839 51.008 497.951 51.232C498.127 51.616 498.471 51.808 498.983 51.808C499.607 51.808 500.015 51.448 500.207 50.728C500.351 50.216 500.423 49.064 500.423 47.272ZM498.935 52.24C496.935 52.24 495.423 51.728 494.399 50.704C493.375 49.68 492.863 48.216 492.863 46.312C492.863 44.392 493.407 42.92 494.495 41.896C495.599 40.856 497.143 40.336 499.127 40.336C501.111 40.336 502.591 40.816 503.567 41.776C504.543 42.72 505.031 44.168 505.031 46.12C505.031 50.2 502.999 52.24 498.935 52.24ZM505.247 40.576H511.031V42.784C511.559 41.152 512.719 40.336 514.511 40.336C516.319 40.336 517.415 41.2 517.799 42.928C518.359 41.2 519.535 40.336 521.327 40.336C523.679 40.336 524.855 41.672 524.855 44.344V51.568H526.199V52H519.551V51.568H520.391V43.768C520.391 42.552 520.287 41.84 520.079 41.632C519.983 41.536 519.855 41.488 519.695 41.488C519.231 41.488 518.823 41.8 518.471 42.424C518.119 43.048 517.943 43.84 517.943 44.8V51.568H518.807V52H512.639V51.568H513.479V43.768C513.479 42.552 513.375 41.84 513.167 41.632C513.071 41.536 512.943 41.488 512.783 41.488C512.335 41.488 511.927 41.832 511.559 42.52C511.207 43.192 511.031 44 511.031 44.944V51.568H511.895V52H505.247V51.568H506.567V41.008H505.247V40.576ZM532.407 52.24C530.343 52.24 528.791 51.712 527.751 50.656C526.727 49.584 526.215 48.104 526.215 46.216C526.215 44.312 526.791 42.856 527.943 41.848C529.111 40.84 530.591 40.336 532.383 40.336C536.015 40.336 537.759 42.16 537.615 45.808H530.847V46.744C530.847 48.312 531.047 49.496 531.447 50.296C531.847 51.096 532.543 51.496 533.535 51.496C535.391 51.496 536.607 50.504 537.183 48.52L537.615 48.592C537.311 49.744 536.759 50.64 535.959 51.28C535.175 51.92 533.991 52.24 532.407 52.24ZM530.871 45.328H533.343V44.152C533.343 42.856 533.263 41.976 533.103 41.512C532.959 41.032 532.655 40.792 532.191 40.792C531.743 40.792 531.407 41.048 531.183 41.56C530.975 42.056 530.871 42.92 530.871 44.152V45.328ZM554.783 35.2H561.191V35.656H559.871V51.544H561.191V52H553.871V51.544H555.191V36.544H555.095L551.495 52H548.495L544.271 36.472H544.175V51.544H545.495V52H542.231V51.544H543.551V35.656H542.231V35.2H548.711L551.903 47.56L554.783 35.2ZM567.883 52.24C565.819 52.24 564.267 51.712 563.227 50.656C562.203 49.584 561.691 48.104 561.691 46.216C561.691 44.312 562.267 42.856 563.419 41.848C564.587 40.84 566.067 40.336 567.859 40.336C571.491 40.336 573.235 42.16 573.091 45.808H566.323V46.744C566.323 48.312 566.523 49.496 566.923 50.296C567.323 51.096 568.019 51.496 569.011 51.496C570.867 51.496 572.083 50.504 572.659 48.52L573.091 48.592C572.787 49.744 572.235 50.64 571.435 51.28C570.651 51.92 569.467 52.24 567.883 52.24ZM566.347 45.328H568.819V44.152C568.819 42.856 568.739 41.976 568.579 41.512C568.435 41.032 568.131 40.792 567.667 40.792C567.219 40.792 566.883 41.048 566.659 41.56C566.451 42.056 566.347 42.92 566.347 44.152V45.328ZM578.362 47.032C578.362 48.712 578.45 49.832 578.626 50.392C578.802 50.936 579.122 51.208 579.586 51.208C580.066 51.208 580.474 51 580.81 50.584C581.162 50.168 581.338 49.552 581.338 48.736V43.504C581.338 42.816 581.202 42.232 580.93 41.752C580.658 41.272 580.258 41.032 579.73 41.032C579.202 41.032 578.842 41.384 578.65 42.088C578.458 42.792 578.362 44.024 578.362 45.784V47.032ZM581.65 52L581.386 50.32C580.842 51.6 579.738 52.24 578.074 52.24C576.698 52.24 575.626 51.744 574.858 50.752C574.106 49.76 573.73 48.28 573.73 46.312C573.73 42.328 575.314 40.336 578.482 40.336C579.89 40.336 580.818 40.728 581.266 41.512V34.432H579.802V34H585.802V51.568H586.978V52H581.65ZM590.671 38.92C589.823 38.92 589.215 38.704 588.847 38.272C588.495 37.84 588.319 37.304 588.319 36.664C588.319 36.024 588.511 35.496 588.895 35.08C589.295 34.664 589.895 34.456 590.695 34.456C591.495 34.456 592.103 34.648 592.519 35.032C592.935 35.4 593.143 35.936 593.143 36.64C593.143 37.328 592.943 37.88 592.543 38.296C592.143 38.712 591.519 38.92 590.671 38.92ZM587.047 40.576H592.927V51.568H594.271V52H587.143V51.568H588.463V41.008H587.047V40.576ZM601.025 40.768C600.321 40.768 599.817 41.152 599.513 41.92C599.209 42.688 599.057 43.96 599.057 45.736V46.984C599.057 48.568 599.233 49.704 599.585 50.392C599.937 51.08 600.585 51.424 601.529 51.424C602.473 51.424 603.225 51.104 603.785 50.464C604.345 49.824 604.705 49.096 604.865 48.28L605.297 48.328C604.993 49.704 604.433 50.696 603.617 51.304C602.785 51.928 601.641 52.24 600.185 52.24C598.329 52.24 596.905 51.744 595.913 50.752C594.921 49.744 594.425 48.28 594.425 46.36C594.425 44.424 594.985 42.936 596.105 41.896C597.241 40.856 598.817 40.336 600.833 40.336C602.257 40.336 603.345 40.616 604.097 41.176C604.849 41.72 605.225 42.408 605.225 43.24C605.225 44.072 605.041 44.68 604.673 45.064C604.321 45.448 603.825 45.64 603.185 45.64C602.561 45.64 602.057 45.472 601.673 45.136C601.289 44.8 601.097 44.304 601.097 43.648C601.097 43.36 601.137 43.072 601.217 42.784H602.009C602.121 42.464 602.177 42.176 602.177 41.92C602.177 41.152 601.793 40.768 601.025 40.768ZM611.21 46.36H611.906V44.512C611.906 42.992 611.818 41.976 611.642 41.464C611.482 40.936 611.162 40.672 610.682 40.672C610.394 40.672 610.13 40.752 609.89 40.912C609.666 41.056 609.554 41.264 609.554 41.536C609.554 41.792 609.602 42.056 609.698 42.328H610.298C610.426 42.664 610.49 43.072 610.49 43.552C610.49 44.016 610.29 44.424 609.89 44.776C609.49 45.112 608.986 45.28 608.378 45.28C607.002 45.28 606.314 44.616 606.314 43.288C606.314 41.32 607.986 40.336 611.33 40.336C613.234 40.336 614.546 40.664 615.266 41.32C616.002 41.96 616.37 43.144 616.37 44.872V49.744C616.37 50.576 616.602 50.992 617.066 50.992C617.61 50.992 617.93 50.168 618.026 48.52L618.386 48.544C618.322 49.952 618.058 50.92 617.594 51.448C617.13 51.976 616.37 52.24 615.314 52.24C613.394 52.24 612.29 51.648 612.002 50.464C611.794 51.072 611.482 51.52 611.066 51.808C610.65 52.096 610.042 52.24 609.242 52.24C606.874 52.24 605.69 51.272 605.69 49.336C605.69 48.2 606.138 47.424 607.034 47.008C607.946 46.576 609.338 46.36 611.21 46.36ZM610.25 49.312C610.25 50.144 610.29 50.68 610.37 50.92C610.466 51.16 610.634 51.28 610.874 51.28C611.13 51.28 611.362 51.08 611.57 50.68C611.794 50.264 611.906 49.696 611.906 48.976V46.744H611.738C610.746 46.744 610.25 47.472 610.25 48.928V49.312ZM619.014 48.568V41.008H617.694V40.576H619.014V37.48L623.478 36.376V40.576H626.598V41.008H623.478V49.096C623.478 49.848 623.55 50.4 623.694 50.752C623.854 51.104 624.174 51.28 624.654 51.28C625.134 51.28 625.55 51.04 625.902 50.56C626.27 50.08 626.51 49.424 626.622 48.592L627.03 48.64C626.902 49.744 626.55 50.624 625.974 51.28C625.398 51.92 624.446 52.24 623.118 52.24C621.79 52.24 620.774 51.976 620.07 51.448C619.366 50.92 619.014 49.96 619.014 48.568ZM630.332 38.92C629.484 38.92 628.876 38.704 628.508 38.272C628.156 37.84 627.98 37.304 627.98 36.664C627.98 36.024 628.172 35.496 628.556 35.08C628.956 34.664 629.556 34.456 630.356 34.456C631.156 34.456 631.764 34.648 632.18 35.032C632.596 35.4 632.804 35.936 632.804 36.64C632.804 37.328 632.604 37.88 632.204 38.296C631.804 38.712 631.18 38.92 630.332 38.92ZM626.708 40.576H632.588V51.568H633.932V52H626.804V51.568H628.124V41.008H626.708V40.576ZM641.717 47.272V45.232C641.717 43.68 641.629 42.552 641.453 41.848C641.293 41.128 640.909 40.768 640.301 40.768C639.949 40.768 639.661 40.872 639.437 41.08C639.229 41.272 639.077 41.6 638.981 42.064C638.837 42.784 638.765 43.88 638.765 45.352V47.224C638.765 48.968 638.813 50.016 638.909 50.368C639.021 50.72 639.133 51.008 639.245 51.232C639.421 51.616 639.765 51.808 640.277 51.808C640.901 51.808 641.309 51.448 641.501 50.728C641.645 50.216 641.717 49.064 641.717 47.272ZM640.229 52.24C638.229 52.24 636.717 51.728 635.693 50.704C634.669 49.68 634.157 48.216 634.157 46.312C634.157 44.392 634.701 42.92 635.789 41.896C636.893 40.856 638.437 40.336 640.421 40.336C642.405 40.336 643.885 40.816 644.861 41.776C645.837 42.72 646.325 44.168 646.325 46.12C646.325 50.2 644.293 52.24 640.229 52.24ZM646.588 40.576H652.372V42.784C652.628 42.048 653.02 41.456 653.548 41.008C654.076 40.56 654.876 40.336 655.948 40.336C658.428 40.336 659.668 41.672 659.668 44.344V51.568H661.012V52H654.22V51.568H655.204V43.768C655.204 42.808 655.14 42.192 655.012 41.92C654.884 41.632 654.652 41.488 654.316 41.488C653.804 41.488 653.348 41.824 652.948 42.496C652.564 43.168 652.372 43.984 652.372 44.944V51.568H653.404V52H646.588V51.568H647.908V41.008H646.588V40.576Z" fill="black" fill-opacity="0.8"/>
<rect x="810" width="326" height="85" rx="34" fill="#C3D7F1"/>
<path d="M908.531 35.416C906.051 35.416 904.811 37.808 904.811 42.592V44.488C904.811 46.76 905.139 48.544 905.795 49.84C906.451 51.12 907.419 51.76 908.699 51.76C910.459 51.76 912.075 50.048 913.547 46.624H913.979L913.811 51.976H913.547C913.451 51.8 913.363 51.68 913.283 51.616C913.203 51.536 913.083 51.496 912.923 51.496C912.779 51.496 912.203 51.624 911.195 51.88C910.187 52.12 909.163 52.24 908.123 52.24C905.515 52.24 903.491 51.536 902.051 50.128C900.627 48.72 899.915 46.608 899.915 43.792C899.915 40.96 900.659 38.776 902.147 37.24C903.651 35.704 905.667 34.936 908.195 34.936C909.171 34.936 910.123 35.064 911.051 35.32C911.995 35.56 912.547 35.68 912.707 35.68C912.867 35.68 912.987 35.648 913.067 35.584C913.147 35.504 913.235 35.376 913.331 35.2H913.595L913.787 40.408H913.355C912.635 38.792 911.891 37.56 911.123 36.712C910.371 35.848 909.507 35.416 908.531 35.416ZM915.286 34H921.07V42.784C921.326 42.048 921.718 41.456 922.246 41.008C922.774 40.56 923.574 40.336 924.646 40.336C927.126 40.336 928.366 41.672 928.366 44.344V51.568H929.71V52H922.918V51.568H923.902V43.768C923.902 42.808 923.838 42.192 923.71 41.92C923.582 41.632 923.35 41.488 923.014 41.488C922.502 41.488 922.046 41.824 921.646 42.496C921.262 43.168 921.07 43.984 921.07 44.944V51.568H922.102V52H915.286V51.568H916.606V34.432H915.286V34ZM935.379 46.36H936.075V44.512C936.075 42.992 935.987 41.976 935.811 41.464C935.651 40.936 935.331 40.672 934.851 40.672C934.563 40.672 934.299 40.752 934.059 40.912C933.835 41.056 933.723 41.264 933.723 41.536C933.723 41.792 933.771 42.056 933.867 42.328H934.467C934.595 42.664 934.659 43.072 934.659 43.552C934.659 44.016 934.459 44.424 934.059 44.776C933.659 45.112 933.155 45.28 932.547 45.28C931.171 45.28 930.483 44.616 930.483 43.288C930.483 41.32 932.155 40.336 935.499 40.336C937.403 40.336 938.715 40.664 939.435 41.32C940.171 41.96 940.539 43.144 940.539 44.872V49.744C940.539 50.576 940.771 50.992 941.235 50.992C941.779 50.992 942.099 50.168 942.195 48.52L942.555 48.544C942.491 49.952 942.227 50.92 941.763 51.448C941.299 51.976 940.539 52.24 939.483 52.24C937.563 52.24 936.459 51.648 936.171 50.464C935.963 51.072 935.651 51.52 935.235 51.808C934.819 52.096 934.211 52.24 933.411 52.24C931.043 52.24 929.859 51.272 929.859 49.336C929.859 48.2 930.307 47.424 931.203 47.008C932.115 46.576 933.507 46.36 935.379 46.36ZM934.419 49.312C934.419 50.144 934.459 50.68 934.539 50.92C934.635 51.16 934.803 51.28 935.043 51.28C935.299 51.28 935.531 51.08 935.739 50.68C935.963 50.264 936.075 49.696 936.075 48.976V46.744H935.907C934.915 46.744 934.419 47.472 934.419 48.928V49.312ZM942.383 40.576H948.167V42.784C948.423 42.048 948.815 41.456 949.343 41.008C949.871 40.56 950.671 40.336 951.743 40.336C954.223 40.336 955.463 41.672 955.463 44.344V51.568H956.807V52H950.015V51.568H950.999V43.768C950.999 42.808 950.935 42.192 950.807 41.92C950.679 41.632 950.447 41.488 950.111 41.488C949.599 41.488 949.143 41.824 948.743 42.496C948.359 43.168 948.167 43.984 948.167 44.944V51.568H949.199V52H942.383V51.568H943.703V41.008H942.383V40.576ZM966.292 39.328L966.964 38.92C967.06 38.424 966.868 38.176 966.388 38.176C965.7 38.176 965.356 38.704 965.356 39.76C965.356 40.176 965.412 40.656 965.524 41.2C966.74 42.016 967.348 43.064 967.348 44.344C967.348 45.608 966.908 46.592 966.028 47.296C965.148 48 963.956 48.352 962.452 48.352C961.828 48.352 961.18 48.288 960.508 48.16C959.804 48.608 959.452 48.944 959.452 49.168C959.452 49.392 959.964 49.504 960.988 49.504H963.436C967.068 49.504 968.884 50.808 968.884 53.416C968.884 54.824 968.332 55.936 967.228 56.752C966.14 57.584 964.436 58 962.116 58C958.164 58 956.188 57.144 956.188 55.432C956.188 54.504 956.804 53.864 958.036 53.512L959.476 54.16C959.348 54.624 959.284 55.064 959.284 55.48C959.284 56.856 960.308 57.544 962.356 57.544C963.604 57.544 964.564 57.312 965.236 56.848C965.908 56.384 966.244 55.808 966.244 55.12C966.244 54.432 966.036 53.968 965.62 53.728C965.22 53.504 964.412 53.392 963.196 53.392H960.868C959.572 53.392 958.644 53.176 958.084 52.744C957.524 52.312 957.244 51.784 957.244 51.16C957.244 50.52 957.444 49.992 957.844 49.576C958.244 49.144 958.956 48.616 959.98 47.992C958.124 47.464 957.196 46.248 957.196 44.344C957.196 43.144 957.628 42.176 958.492 41.44C959.356 40.704 960.652 40.336 962.38 40.336C963.42 40.336 964.308 40.536 965.044 40.936C964.948 40.504 964.9 40.112 964.9 39.76C964.9 38.864 965.14 38.216 965.62 37.816C966.1 37.416 966.636 37.216 967.228 37.216C967.82 37.216 968.292 37.376 968.644 37.696C969.012 38 969.196 38.424 969.196 38.968C969.196 39.512 969.052 39.92 968.764 40.192C968.476 40.448 968.124 40.576 967.708 40.576C967.308 40.576 966.972 40.472 966.7 40.264C966.444 40.04 966.308 39.728 966.292 39.328ZM961.204 43.816V45.112C961.204 46.184 961.292 46.912 961.468 47.296C961.66 47.68 961.94 47.872 962.308 47.872C962.692 47.872 962.964 47.688 963.124 47.32C963.3 46.936 963.388 46.16 963.388 44.992V43.816C963.388 42.568 963.308 41.752 963.148 41.368C962.988 40.968 962.716 40.768 962.332 40.768C961.964 40.768 961.684 40.976 961.492 41.392C961.3 41.792 961.204 42.6 961.204 43.816ZM974.336 52.24C972.272 52.24 970.72 51.712 969.68 50.656C968.656 49.584 968.144 48.104 968.144 46.216C968.144 44.312 968.72 42.856 969.872 41.848C971.04 40.84 972.52 40.336 974.312 40.336C977.944 40.336 979.688 42.16 979.544 45.808H972.776V46.744C972.776 48.312 972.976 49.496 973.376 50.296C973.776 51.096 974.472 51.496 975.464 51.496C977.32 51.496 978.536 50.504 979.112 48.52L979.544 48.592C979.24 49.744 978.688 50.64 977.888 51.28C977.104 51.92 975.92 52.24 974.336 52.24ZM972.8 45.328H975.272V44.152C975.272 42.856 975.192 41.976 975.032 41.512C974.888 41.032 974.584 40.792 974.12 40.792C973.672 40.792 973.336 41.048 973.112 41.56C972.904 42.056 972.8 42.92 972.8 44.152V45.328ZM993.16 35.416C990.68 35.416 989.44 37.808 989.44 42.592V44.488C989.44 46.76 989.768 48.544 990.424 49.84C991.08 51.12 992.048 51.76 993.328 51.76C995.088 51.76 996.704 50.048 998.176 46.624H998.608L998.44 51.976H998.176C998.08 51.8 997.992 51.68 997.912 51.616C997.832 51.536 997.712 51.496 997.552 51.496C997.408 51.496 996.832 51.624 995.824 51.88C994.816 52.12 993.792 52.24 992.752 52.24C990.144 52.24 988.12 51.536 986.68 50.128C985.256 48.72 984.544 46.608 984.544 43.792C984.544 40.96 985.288 38.776 986.776 37.24C988.28 35.704 990.296 34.936 992.824 34.936C993.8 34.936 994.752 35.064 995.68 35.32C996.624 35.56 997.176 35.68 997.336 35.68C997.496 35.68 997.616 35.648 997.696 35.584C997.776 35.504 997.864 35.376 997.96 35.2H998.224L998.416 40.408H997.984C997.264 38.792 996.52 37.56 995.752 36.712C995 35.848 994.136 35.416 993.16 35.416ZM999.818 34H1005.7V51.568H1007.04V52H999.914V51.568H1001.23V34.432H999.818V34ZM1010.58 38.92C1009.73 38.92 1009.12 38.704 1008.76 38.272C1008.4 37.84 1008.23 37.304 1008.23 36.664C1008.23 36.024 1008.42 35.496 1008.8 35.08C1009.2 34.664 1009.8 34.456 1010.6 34.456C1011.4 34.456 1012.01 34.648 1012.43 35.032C1012.84 35.4 1013.05 35.936 1013.05 36.64C1013.05 37.328 1012.85 37.88 1012.45 38.296C1012.05 38.712 1011.43 38.92 1010.58 38.92ZM1006.96 40.576H1012.84V51.568H1014.18V52H1007.05V51.568H1008.37V41.008H1006.96V40.576ZM1014.26 40.576H1020.04V42.784C1020.3 42.048 1020.69 41.456 1021.22 41.008C1021.75 40.56 1022.55 40.336 1023.62 40.336C1026.1 40.336 1027.34 41.672 1027.34 44.344V51.568H1028.68V52H1021.89V51.568H1022.88V43.768C1022.88 42.808 1022.81 42.192 1022.68 41.92C1022.56 41.632 1022.32 41.488 1021.99 41.488C1021.48 41.488 1021.02 41.824 1020.62 42.496C1020.24 43.168 1020.04 43.984 1020.04 44.944V51.568H1021.08V52H1014.26V51.568H1015.58V41.008H1014.26V40.576ZM1032.07 38.92C1031.23 38.92 1030.62 38.704 1030.25 38.272C1029.9 37.84 1029.72 37.304 1029.72 36.664C1029.72 36.024 1029.91 35.496 1030.3 35.08C1030.7 34.664 1031.3 34.456 1032.1 34.456C1032.9 34.456 1033.51 34.648 1033.92 35.032C1034.34 35.4 1034.55 35.936 1034.55 36.64C1034.55 37.328 1034.35 37.88 1033.95 38.296C1033.55 38.712 1032.92 38.92 1032.07 38.92ZM1028.45 40.576H1034.33V51.568H1035.67V52H1028.55V51.568H1029.87V41.008H1028.45V40.576ZM1042.43 40.768C1041.72 40.768 1041.22 41.152 1040.92 41.92C1040.61 42.688 1040.46 43.96 1040.46 45.736V46.984C1040.46 48.568 1040.64 49.704 1040.99 50.392C1041.34 51.08 1041.99 51.424 1042.93 51.424C1043.88 51.424 1044.63 51.104 1045.19 50.464C1045.75 49.824 1046.11 49.096 1046.27 48.28L1046.7 48.328C1046.4 49.704 1045.84 50.696 1045.02 51.304C1044.19 51.928 1043.04 52.24 1041.59 52.24C1039.73 52.24 1038.31 51.744 1037.32 50.752C1036.32 49.744 1035.83 48.28 1035.83 46.36C1035.83 44.424 1036.39 42.936 1037.51 41.896C1038.64 40.856 1040.22 40.336 1042.24 40.336C1043.66 40.336 1044.75 40.616 1045.5 41.176C1046.25 41.72 1046.63 42.408 1046.63 43.24C1046.63 44.072 1046.44 44.68 1046.08 45.064C1045.72 45.448 1045.23 45.64 1044.59 45.64C1043.96 45.64 1043.46 45.472 1043.08 45.136C1042.69 44.8 1042.5 44.304 1042.5 43.648C1042.5 43.36 1042.54 43.072 1042.62 42.784H1043.41C1043.52 42.464 1043.58 42.176 1043.58 41.92C1043.58 41.152 1043.2 40.768 1042.43 40.768Z" fill="black" fill-opacity="0.8"/>
<rect x="405" y="168" width="326" height="85" rx="34" fill="#C3D7F1"/>
<path d="M454.435 211.312C454.435 214.608 453.507 216.904 451.651 218.2C449.939 219.4 447.587 220 444.595 220H437.803V219.544H439.387V203.656H437.803V203.2H445.219C448.291 203.2 450.595 203.832 452.131 205.096C453.667 206.344 454.435 208.416 454.435 211.312ZM444.067 219.544H444.979C446.595 219.544 447.747 218.976 448.435 217.84C449.139 216.688 449.491 214.768 449.491 212.08V210.688C449.491 207.088 448.803 204.92 447.427 204.184C446.771 203.832 445.843 203.656 444.643 203.656H444.067V219.544ZM458.728 206.92C457.88 206.92 457.272 206.704 456.904 206.272C456.552 205.84 456.376 205.304 456.376 204.664C456.376 204.024 456.568 203.496 456.952 203.08C457.352 202.664 457.952 202.456 458.752 202.456C459.552 202.456 460.16 202.648 460.576 203.032C460.992 203.4 461.2 203.936 461.2 204.64C461.2 205.328 461 205.88 460.6 206.296C460.2 206.712 459.576 206.92 458.728 206.92ZM455.104 208.576H460.984V219.568H462.328V220H455.2V219.568H456.52V209.008H455.104V208.576ZM462.913 220.24V215.944H463.201C463.617 217.336 464.177 218.312 464.881 218.872C465.585 219.432 466.465 219.712 467.521 219.712C469.153 219.712 469.969 219.192 469.969 218.152C469.969 217.704 469.769 217.368 469.369 217.144C468.745 216.792 467.945 216.52 466.969 216.328C465.881 216.04 464.969 215.656 464.233 215.176C463.353 214.6 462.913 213.688 462.913 212.44C462.913 211.192 463.297 210.2 464.065 209.464C464.833 208.712 465.857 208.336 467.137 208.336C467.921 208.336 468.729 208.52 469.561 208.888C469.865 209.016 470.097 209.08 470.257 209.08C470.417 209.08 470.553 209.024 470.665 208.912C470.777 208.8 470.913 208.592 471.073 208.288H471.337V211.96H471.049C470.233 209.88 468.969 208.84 467.257 208.84C466.505 208.84 465.945 208.976 465.577 209.248C465.209 209.504 465.025 209.832 465.025 210.232C465.025 210.472 465.081 210.664 465.193 210.808C465.305 210.936 465.393 211.032 465.457 211.096C465.521 211.16 465.625 211.232 465.769 211.312C465.913 211.376 466.033 211.432 466.129 211.48C466.225 211.512 466.369 211.56 466.561 211.624C466.769 211.688 466.921 211.728 467.017 211.744C468.105 212.016 468.889 212.256 469.369 212.464C469.849 212.656 470.305 212.896 470.737 213.184C471.617 213.792 472.057 214.776 472.057 216.136C472.057 217.48 471.657 218.504 470.857 219.208C470.057 219.896 468.961 220.24 467.569 220.24C466.577 220.24 465.617 220.008 464.689 219.544C464.497 219.416 464.345 219.352 464.233 219.352C463.881 219.352 463.537 219.648 463.201 220.24H462.913ZM473.277 216.568V209.008H471.957V208.576H473.277V205.48L477.741 204.376V208.576H480.861V209.008H477.741V217.096C477.741 217.848 477.813 218.4 477.957 218.752C478.117 219.104 478.437 219.28 478.917 219.28C479.397 219.28 479.813 219.04 480.165 218.56C480.533 218.08 480.773 217.424 480.885 216.592L481.293 216.64C481.165 217.744 480.813 218.624 480.237 219.28C479.661 219.92 478.709 220.24 477.381 220.24C476.053 220.24 475.037 219.976 474.333 219.448C473.629 218.92 473.277 217.96 473.277 216.568ZM489.083 209.248C488.491 209.248 487.971 209.632 487.523 210.4C487.075 211.168 486.851 212.08 486.851 213.136V219.568H488.555V220H481.067V219.568H482.387V209.008H481.067V208.576H486.851V210.88C487.059 210.064 487.459 209.44 488.051 209.008C488.643 208.56 489.315 208.336 490.067 208.336C490.819 208.336 491.427 208.552 491.891 208.984C492.371 209.4 492.611 210 492.611 210.784C492.611 211.552 492.435 212.144 492.083 212.56C491.731 212.976 491.187 213.184 490.451 213.184C489.731 213.184 489.195 212.944 488.843 212.464C488.507 211.984 488.467 211.32 488.723 210.472H489.587C489.987 209.656 489.819 209.248 489.083 209.248ZM506.416 220H500.944L500.68 218.248C500.424 218.888 500.04 219.384 499.528 219.736C499.032 220.072 498.288 220.24 497.296 220.24C494.816 220.24 493.576 218.904 493.576 216.232V209.008H492.232V208.576H498.04V216.808C498.04 217.768 498.104 218.4 498.232 218.704C498.376 219.008 498.648 219.16 499.048 219.16C499.464 219.16 499.832 218.912 500.152 218.416C500.472 217.92 500.632 217.232 500.632 216.352V209.008H499.528V208.576H505.096V219.568H506.416V220ZM507.004 220.24V215.944H507.292C507.708 217.336 508.268 218.312 508.972 218.872C509.676 219.432 510.556 219.712 511.612 219.712C513.244 219.712 514.06 219.192 514.06 218.152C514.06 217.704 513.86 217.368 513.46 217.144C512.836 216.792 512.036 216.52 511.06 216.328C509.972 216.04 509.06 215.656 508.324 215.176C507.444 214.6 507.004 213.688 507.004 212.44C507.004 211.192 507.388 210.2 508.156 209.464C508.924 208.712 509.948 208.336 511.228 208.336C512.012 208.336 512.82 208.52 513.652 208.888C513.956 209.016 514.188 209.08 514.348 209.08C514.508 209.08 514.644 209.024 514.756 208.912C514.868 208.8 515.004 208.592 515.164 208.288H515.428V211.96H515.14C514.324 209.88 513.06 208.84 511.348 208.84C510.596 208.84 510.036 208.976 509.668 209.248C509.3 209.504 509.116 209.832 509.116 210.232C509.116 210.472 509.172 210.664 509.284 210.808C509.396 210.936 509.484 211.032 509.548 211.096C509.612 211.16 509.716 211.232 509.86 211.312C510.004 211.376 510.124 211.432 510.22 211.48C510.316 211.512 510.46 211.56 510.652 211.624C510.86 211.688 511.012 211.728 511.108 211.744C512.196 212.016 512.98 212.256 513.46 212.464C513.94 212.656 514.396 212.896 514.828 213.184C515.708 213.792 516.148 214.776 516.148 216.136C516.148 217.48 515.748 218.504 514.948 219.208C514.148 219.896 513.052 220.24 511.66 220.24C510.668 220.24 509.708 220.008 508.78 219.544C508.588 219.416 508.436 219.352 508.324 219.352C507.972 219.352 507.628 219.648 507.292 220.24H507.004ZM517.367 216.568V209.008H516.047V208.576H517.367V205.48L521.831 204.376V208.576H524.951V209.008H521.831V217.096C521.831 217.848 521.903 218.4 522.047 218.752C522.207 219.104 522.527 219.28 523.007 219.28C523.487 219.28 523.903 219.04 524.255 218.56C524.623 218.08 524.863 217.424 524.975 216.592L525.383 216.64C525.255 217.744 524.903 218.624 524.327 219.28C523.751 219.92 522.799 220.24 521.471 220.24C520.143 220.24 519.127 219.976 518.423 219.448C517.719 218.92 517.367 217.96 517.367 216.568ZM526.981 223.744L526.693 223.384C527.685 222.536 528.333 221.872 528.637 221.392C528.941 220.928 529.093 220.416 529.093 219.856C529.093 219.28 528.845 218.96 528.349 218.896L527.197 219.928C526.829 219.8 526.493 219.576 526.189 219.256C525.901 218.92 525.757 218.496 525.757 217.984C525.757 217.456 525.941 217.008 526.309 216.64C526.693 216.272 527.213 216.088 527.869 216.088C528.541 216.088 529.085 216.344 529.501 216.856C529.917 217.368 530.125 218.048 530.125 218.896C530.125 219.744 529.877 220.56 529.381 221.344C528.885 222.128 528.085 222.928 526.981 223.744ZM547.75 203.2H554.158V203.656H552.838V219.544H554.158V220H546.838V219.544H548.158V204.544H548.062L544.462 220H541.462L537.238 204.472H537.142V219.544H538.462V220H535.198V219.544H536.518V203.656H535.198V203.2H541.678L544.87 215.56L547.75 203.2ZM558.067 206.92C557.219 206.92 556.611 206.704 556.243 206.272C555.891 205.84 555.715 205.304 555.715 204.664C555.715 204.024 555.907 203.496 556.291 203.08C556.691 202.664 557.291 202.456 558.091 202.456C558.891 202.456 559.499 202.648 559.915 203.032C560.331 203.4 560.539 203.936 560.539 204.64C560.539 205.328 560.339 205.88 559.939 206.296C559.539 206.712 558.915 206.92 558.067 206.92ZM554.443 208.576H560.323V219.568H561.667V220H554.539V219.568H555.859V209.008H554.443V208.576ZM562.252 220.24V215.944H562.54C562.956 217.336 563.516 218.312 564.22 218.872C564.924 219.432 565.804 219.712 566.86 219.712C568.492 219.712 569.308 219.192 569.308 218.152C569.308 217.704 569.108 217.368 568.708 217.144C568.084 216.792 567.284 216.52 566.308 216.328C565.22 216.04 564.308 215.656 563.572 215.176C562.692 214.6 562.252 213.688 562.252 212.44C562.252 211.192 562.636 210.2 563.404 209.464C564.172 208.712 565.196 208.336 566.476 208.336C567.26 208.336 568.068 208.52 568.9 208.888C569.204 209.016 569.436 209.08 569.596 209.08C569.756 209.08 569.892 209.024 570.004 208.912C570.116 208.8 570.252 208.592 570.412 208.288H570.676V211.96H570.388C569.572 209.88 568.308 208.84 566.596 208.84C565.844 208.84 565.284 208.976 564.916 209.248C564.548 209.504 564.364 209.832 564.364 210.232C564.364 210.472 564.42 210.664 564.532 210.808C564.644 210.936 564.732 211.032 564.796 211.096C564.86 211.16 564.964 211.232 565.108 211.312C565.252 211.376 565.372 211.432 565.468 211.48C565.564 211.512 565.708 211.56 565.9 211.624C566.108 211.688 566.26 211.728 566.356 211.744C567.444 212.016 568.228 212.256 568.708 212.464C569.188 212.656 569.644 212.896 570.076 213.184C570.956 213.792 571.396 214.776 571.396 216.136C571.396 217.48 570.996 218.504 570.196 219.208C569.396 219.896 568.3 220.24 566.908 220.24C565.916 220.24 564.956 220.008 564.028 219.544C563.836 219.416 563.684 219.352 563.572 219.352C563.22 219.352 562.876 219.648 562.54 220.24H562.252ZM576.522 215.032C576.522 216.712 576.61 217.832 576.786 218.392C576.962 218.936 577.282 219.208 577.746 219.208C578.226 219.208 578.634 219 578.97 218.584C579.322 218.168 579.498 217.552 579.498 216.736V211.504C579.498 210.816 579.362 210.232 579.09 209.752C578.818 209.272 578.418 209.032 577.89 209.032C577.362 209.032 577.002 209.384 576.81 210.088C576.618 210.792 576.522 212.024 576.522 213.784V215.032ZM579.81 220L579.546 218.32C579.002 219.6 577.898 220.24 576.234 220.24C574.858 220.24 573.786 219.744 573.018 218.752C572.266 217.76 571.89 216.28 571.89 214.312C571.89 210.328 573.474 208.336 576.642 208.336C578.05 208.336 578.978 208.728 579.426 209.512V202.432H577.962V202H583.962V219.568H585.138V220H579.81ZM588.832 206.92C587.984 206.92 587.376 206.704 587.008 206.272C586.656 205.84 586.48 205.304 586.48 204.664C586.48 204.024 586.672 203.496 587.056 203.08C587.456 202.664 588.056 202.456 588.856 202.456C589.656 202.456 590.264 202.648 590.68 203.032C591.096 203.4 591.304 203.936 591.304 204.64C591.304 205.328 591.104 205.88 590.704 206.296C590.304 206.712 589.68 206.92 588.832 206.92ZM585.208 208.576H591.088V219.568H592.432V220H585.304V219.568H586.624V209.008H585.208V208.576ZM598.225 214.36H598.921V212.512C598.921 210.992 598.833 209.976 598.657 209.464C598.497 208.936 598.177 208.672 597.697 208.672C597.409 208.672 597.145 208.752 596.905 208.912C596.681 209.056 596.569 209.264 596.569 209.536C596.569 209.792 596.617 210.056 596.713 210.328H597.313C597.441 210.664 597.505 211.072 597.505 211.552C597.505 212.016 597.305 212.424 596.905 212.776C596.505 213.112 596.001 213.28 595.393 213.28C594.017 213.28 593.329 212.616 593.329 211.288C593.329 209.32 595.001 208.336 598.345 208.336C600.249 208.336 601.561 208.664 602.281 209.32C603.017 209.96 603.385 211.144 603.385 212.872V217.744C603.385 218.576 603.617 218.992 604.081 218.992C604.625 218.992 604.945 218.168 605.041 216.52L605.401 216.544C605.337 217.952 605.073 218.92 604.609 219.448C604.145 219.976 603.385 220.24 602.329 220.24C600.409 220.24 599.305 219.648 599.017 218.464C598.809 219.072 598.497 219.52 598.081 219.808C597.665 220.096 597.057 220.24 596.257 220.24C593.889 220.24 592.705 219.272 592.705 217.336C592.705 216.2 593.153 215.424 594.049 215.008C594.961 214.576 596.353 214.36 598.225 214.36ZM597.265 217.312C597.265 218.144 597.305 218.68 597.385 218.92C597.481 219.16 597.649 219.28 597.889 219.28C598.145 219.28 598.377 219.08 598.585 218.68C598.809 218.264 598.921 217.696 598.921 216.976V214.744H598.753C597.761 214.744 597.265 215.472 597.265 216.928V217.312ZM614.687 207.328L615.359 206.92C615.455 206.424 615.263 206.176 614.783 206.176C614.095 206.176 613.751 206.704 613.751 207.76C613.751 208.176 613.807 208.656 613.919 209.2C615.135 210.016 615.743 211.064 615.743 212.344C615.743 213.608 615.303 214.592 614.423 215.296C613.543 216 612.351 216.352 610.847 216.352C610.223 216.352 609.575 216.288 608.903 216.16C608.199 216.608 607.847 216.944 607.847 217.168C607.847 217.392 608.359 217.504 609.383 217.504H611.831C615.463 217.504 617.279 218.808 617.279 221.416C617.279 222.824 616.727 223.936 615.623 224.752C614.535 225.584 612.831 226 610.511 226C606.559 226 604.583 225.144 604.583 223.432C604.583 222.504 605.199 221.864 606.431 221.512L607.871 222.16C607.743 222.624 607.679 223.064 607.679 223.48C607.679 224.856 608.703 225.544 610.751 225.544C611.999 225.544 612.959 225.312 613.631 224.848C614.303 224.384 614.639 223.808 614.639 223.12C614.639 222.432 614.431 221.968 614.015 221.728C613.615 221.504 612.807 221.392 611.591 221.392H609.263C607.967 221.392 607.039 221.176 606.479 220.744C605.919 220.312 605.639 219.784 605.639 219.16C605.639 218.52 605.839 217.992 606.239 217.576C606.639 217.144 607.351 216.616 608.375 215.992C606.519 215.464 605.591 214.248 605.591 212.344C605.591 211.144 606.023 210.176 606.887 209.44C607.751 208.704 609.047 208.336 610.775 208.336C611.815 208.336 612.703 208.536 613.439 208.936C613.343 208.504 613.295 208.112 613.295 207.76C613.295 206.864 613.535 206.216 614.015 205.816C614.495 205.416 615.031 205.216 615.623 205.216C616.215 205.216 616.687 205.376 617.039 205.696C617.407 206 617.591 206.424 617.591 206.968C617.591 207.512 617.447 207.92 617.159 208.192C616.871 208.448 616.519 208.576 616.103 208.576C615.703 208.576 615.367 208.472 615.095 208.264C614.839 208.04 614.703 207.728 614.687 207.328ZM609.599 211.816V213.112C609.599 214.184 609.687 214.912 609.863 215.296C610.055 215.68 610.335 215.872 610.703 215.872C611.087 215.872 611.359 215.688 611.519 215.32C611.695 214.936 611.783 214.16 611.783 212.992V211.816C611.783 210.568 611.703 209.752 611.543 209.368C611.383 208.968 611.111 208.768 610.727 208.768C610.359 208.768 610.079 208.976 609.887 209.392C609.695 209.792 609.599 210.6 609.599 211.816ZM617.194 208.576H622.978V210.784C623.234 210.048 623.626 209.456 624.154 209.008C624.682 208.56 625.482 208.336 626.554 208.336C629.034 208.336 630.274 209.672 630.274 212.344V219.568H631.618V220H624.826V219.568H625.81V211.768C625.81 210.808 625.746 210.192 625.618 209.92C625.49 209.632 625.258 209.488 624.922 209.488C624.41 209.488 623.954 209.824 623.554 210.496C623.17 211.168 622.978 211.984 622.978 212.944V219.568H624.01V220H617.194V219.568H618.514V209.008H617.194V208.576ZM639.232 215.272V213.232C639.232 211.68 639.144 210.552 638.968 209.848C638.808 209.128 638.424 208.768 637.816 208.768C637.464 208.768 637.176 208.872 636.952 209.08C636.744 209.272 636.592 209.6 636.496 210.064C636.352 210.784 636.28 211.88 636.28 213.352V215.224C636.28 216.968 636.328 218.016 636.424 218.368C636.536 218.72 636.648 219.008 636.76 219.232C636.936 219.616 637.28 219.808 637.792 219.808C638.416 219.808 638.824 219.448 639.016 218.728C639.16 218.216 639.232 217.064 639.232 215.272ZM637.744 220.24C635.744 220.24 634.232 219.728 633.208 218.704C632.184 217.68 631.672 216.216 631.672 214.312C631.672 212.392 632.216 210.92 633.304 209.896C634.408 208.856 635.952 208.336 637.936 208.336C639.92 208.336 641.4 208.816 642.376 209.776C643.352 210.72 643.84 212.168 643.84 214.12C643.84 218.2 641.808 220.24 637.744 220.24ZM644.607 220.24V215.944H644.895C645.311 217.336 645.871 218.312 646.575 218.872C647.279 219.432 648.159 219.712 649.215 219.712C650.847 219.712 651.663 219.192 651.663 218.152C651.663 217.704 651.463 217.368 651.063 217.144C650.439 216.792 649.639 216.52 648.663 216.328C647.575 216.04 646.663 215.656 645.927 215.176C645.047 214.6 644.607 213.688 644.607 212.44C644.607 211.192 644.991 210.2 645.759 209.464C646.527 208.712 647.551 208.336 648.831 208.336C649.615 208.336 650.423 208.52 651.255 208.888C651.559 209.016 651.791 209.08 651.951 209.08C652.111 209.08 652.247 209.024 652.359 208.912C652.471 208.8 652.607 208.592 652.767 208.288H653.031V211.96H652.743C651.927 209.88 650.663 208.84 648.951 208.84C648.199 208.84 647.639 208.976 647.271 209.248C646.903 209.504 646.719 209.832 646.719 210.232C646.719 210.472 646.775 210.664 646.887 210.808C646.999 210.936 647.087 211.032 647.151 211.096C647.215 211.16 647.319 211.232 647.463 211.312C647.607 211.376 647.727 211.432 647.823 211.48C647.919 211.512 648.063 211.56 648.255 211.624C648.463 211.688 648.615 211.728 648.711 211.744C649.799 212.016 650.583 212.256 651.063 212.464C651.543 212.656 651.999 212.896 652.431 213.184C653.311 213.792 653.751 214.776 653.751 216.136C653.751 217.48 653.351 218.504 652.551 219.208C651.751 219.896 650.655 220.24 649.263 220.24C648.271 220.24 647.311 220.008 646.383 219.544C646.191 219.416 646.039 219.352 645.927 219.352C645.575 219.352 645.231 219.648 644.895 220.24H644.607ZM657.533 206.92C656.685 206.92 656.077 206.704 655.709 206.272C655.357 205.84 655.181 205.304 655.181 204.664C655.181 204.024 655.373 203.496 655.757 203.08C656.157 202.664 656.757 202.456 657.557 202.456C658.357 202.456 658.965 202.648 659.381 203.032C659.797 203.4 660.005 203.936 660.005 204.64C660.005 205.328 659.805 205.88 659.405 206.296C659.005 206.712 658.381 206.92 657.533 206.92ZM653.909 208.576H659.789V219.568H661.133V220H654.005V219.568H655.325V209.008H653.909V208.576ZM661.718 220.24V215.944H662.006C662.422 217.336 662.982 218.312 663.686 218.872C664.39 219.432 665.27 219.712 666.326 219.712C667.958 219.712 668.774 219.192 668.774 218.152C668.774 217.704 668.574 217.368 668.174 217.144C667.55 216.792 666.75 216.52 665.774 216.328C664.686 216.04 663.774 215.656 663.038 215.176C662.158 214.6 661.718 213.688 661.718 212.44C661.718 211.192 662.102 210.2 662.87 209.464C663.638 208.712 664.662 208.336 665.942 208.336C666.726 208.336 667.534 208.52 668.366 208.888C668.67 209.016 668.902 209.08 669.062 209.08C669.222 209.08 669.358 209.024 669.47 208.912C669.582 208.8 669.718 208.592 669.878 208.288H670.142V211.96H669.854C669.038 209.88 667.774 208.84 666.062 208.84C665.31 208.84 664.75 208.976 664.382 209.248C664.014 209.504 663.83 209.832 663.83 210.232C663.83 210.472 663.886 210.664 663.998 210.808C664.11 210.936 664.198 211.032 664.262 211.096C664.326 211.16 664.43 211.232 664.574 211.312C664.718 211.376 664.838 211.432 664.934 211.48C665.03 211.512 665.174 211.56 665.366 211.624C665.574 211.688 665.726 211.728 665.822 211.744C666.91 212.016 667.694 212.256 668.174 212.464C668.654 212.656 669.11 212.896 669.542 213.184C670.422 213.792 670.862 214.776 670.862 216.136C670.862 217.48 670.462 218.504 669.662 219.208C668.862 219.896 667.766 220.24 666.374 220.24C665.382 220.24 664.422 220.008 663.494 219.544C663.302 219.416 663.15 219.352 663.038 219.352C662.686 219.352 662.342 219.648 662.006 220.24H661.718ZM672.94 223.744L672.652 223.384C673.644 222.536 674.292 221.872 674.596 221.392C674.9 220.928 675.052 220.416 675.052 219.856C675.052 219.28 674.804 218.96 674.308 218.896L673.156 219.928C672.788 219.8 672.452 219.576 672.148 219.256C671.86 218.92 671.716 218.496 671.716 217.984C671.716 217.456 671.9 217.008 672.268 216.64C672.652 216.272 673.172 216.088 673.828 216.088C674.5 216.088 675.044 216.344 675.46 216.856C675.876 217.368 676.084 218.048 676.084 218.896C676.084 219.744 675.836 220.56 675.34 221.344C674.844 222.128 674.044 222.928 672.94 223.744ZM683.702 220.24C683.014 220.24 682.494 220.04 682.142 219.64C681.806 219.224 681.638 218.728 681.638 218.152C681.638 217.56 681.814 217.064 682.166 216.664C682.534 216.264 683.046 216.064 683.702 216.064C684.358 216.064 684.878 216.232 685.262 216.568C685.646 216.904 685.838 217.408 685.838 218.08C685.838 218.752 685.654 219.28 685.286 219.664C684.934 220.048 684.406 220.24 683.702 220.24ZM689.598 220.24C688.91 220.24 688.39 220.04 688.038 219.64C687.702 219.224 687.534 218.728 687.534 218.152C687.534 217.56 687.71 217.064 688.062 216.664C688.43 216.264 688.942 216.064 689.598 216.064C690.254 216.064 690.774 216.232 691.158 216.568C691.542 216.904 691.734 217.408 691.734 218.08C691.734 218.752 691.55 219.28 691.182 219.664C690.83 220.048 690.302 220.24 689.598 220.24ZM695.493 220.24C694.805 220.24 694.285 220.04 693.933 219.64C693.597 219.224 693.429 218.728 693.429 218.152C693.429 217.56 693.605 217.064 693.957 216.664C694.325 216.264 694.837 216.064 695.493 216.064C696.149 216.064 696.669 216.232 697.053 216.568C697.437 216.904 697.629 217.408 697.629 218.08C697.629 218.752 697.445 219.28 697.077 219.664C696.725 220.048 696.197 220.24 695.493 220.24Z" fill="black" fill-opacity="0.8"/>
<rect y="168" width="326" height="85" rx="34" fill="#C3D7F1"/>
<path d="M98.5313 203.416C96.0513 203.416 94.8113 205.808 94.8113 210.592V212.488C94.8113 214.76 95.1393 216.544 95.7953 217.84C96.4513 219.12 97.4193 219.76 98.6993 219.76C100.459 219.76 102.075 218.048 103.547 214.624H103.979L103.811 219.976H103.547C103.451 219.8 103.363 219.68 103.283 219.616C103.203 219.536 103.083 219.496 102.923 219.496C102.779 219.496 102.203 219.624 101.195 219.88C100.187 220.12 99.1633 220.24 98.1233 220.24C95.5153 220.24 93.4913 219.536 92.0513 218.128C90.6273 216.72 89.9153 214.608 89.9153 211.792C89.9153 208.96 90.6593 206.776 92.1473 205.24C93.6513 203.704 95.6673 202.936 98.1953 202.936C99.1713 202.936 100.123 203.064 101.051 203.32C101.995 203.56 102.547 203.68 102.707 203.68C102.867 203.68 102.987 203.648 103.067 203.584C103.147 203.504 103.235 203.376 103.331 203.2H103.595L103.787 208.408H103.355C102.635 206.792 101.891 205.56 101.123 204.712C100.371 203.848 99.5073 203.416 98.5313 203.416ZM105.286 202H111.07V210.784C111.326 210.048 111.718 209.456 112.246 209.008C112.774 208.56 113.574 208.336 114.646 208.336C117.126 208.336 118.366 209.672 118.366 212.344V219.568H119.71V220H112.918V219.568H113.902V211.768C113.902 210.808 113.838 210.192 113.71 209.92C113.582 209.632 113.35 209.488 113.014 209.488C112.502 209.488 112.046 209.824 111.646 210.496C111.262 211.168 111.07 211.984 111.07 212.944V219.568H112.102V220H105.286V219.568H106.606V202.432H105.286V202ZM125.379 214.36H126.075V212.512C126.075 210.992 125.987 209.976 125.811 209.464C125.651 208.936 125.331 208.672 124.851 208.672C124.563 208.672 124.299 208.752 124.059 208.912C123.835 209.056 123.723 209.264 123.723 209.536C123.723 209.792 123.771 210.056 123.867 210.328H124.467C124.595 210.664 124.659 211.072 124.659 211.552C124.659 212.016 124.459 212.424 124.059 212.776C123.659 213.112 123.155 213.28 122.547 213.28C121.171 213.28 120.483 212.616 120.483 211.288C120.483 209.32 122.155 208.336 125.499 208.336C127.403 208.336 128.715 208.664 129.435 209.32C130.171 209.96 130.539 211.144 130.539 212.872V217.744C130.539 218.576 130.771 218.992 131.235 218.992C131.779 218.992 132.099 218.168 132.195 216.52L132.555 216.544C132.491 217.952 132.227 218.92 131.763 219.448C131.299 219.976 130.539 220.24 129.483 220.24C127.563 220.24 126.459 219.648 126.171 218.464C125.963 219.072 125.651 219.52 125.235 219.808C124.819 220.096 124.211 220.24 123.411 220.24C121.043 220.24 119.859 219.272 119.859 217.336C119.859 216.2 120.307 215.424 121.203 215.008C122.115 214.576 123.507 214.36 125.379 214.36ZM124.419 217.312C124.419 218.144 124.459 218.68 124.539 218.92C124.635 219.16 124.803 219.28 125.043 219.28C125.299 219.28 125.531 219.08 125.739 218.68C125.963 218.264 126.075 217.696 126.075 216.976V214.744H125.907C124.915 214.744 124.419 215.472 124.419 216.928V217.312ZM132.383 208.576H138.167V210.784C138.423 210.048 138.815 209.456 139.343 209.008C139.871 208.56 140.671 208.336 141.743 208.336C144.223 208.336 145.463 209.672 145.463 212.344V219.568H146.807V220H140.015V219.568H140.999V211.768C140.999 210.808 140.935 210.192 140.807 209.92C140.679 209.632 140.447 209.488 140.111 209.488C139.599 209.488 139.143 209.824 138.743 210.496C138.359 211.168 138.167 211.984 138.167 212.944V219.568H139.199V220H132.383V219.568H133.703V209.008H132.383V208.576ZM156.292 207.328L156.964 206.92C157.06 206.424 156.868 206.176 156.388 206.176C155.7 206.176 155.356 206.704 155.356 207.76C155.356 208.176 155.412 208.656 155.524 209.2C156.74 210.016 157.348 211.064 157.348 212.344C157.348 213.608 156.908 214.592 156.028 215.296C155.148 216 153.956 216.352 152.452 216.352C151.828 216.352 151.18 216.288 150.508 216.16C149.804 216.608 149.452 216.944 149.452 217.168C149.452 217.392 149.964 217.504 150.988 217.504H153.436C157.068 217.504 158.884 218.808 158.884 221.416C158.884 222.824 158.332 223.936 157.228 224.752C156.14 225.584 154.436 226 152.116 226C148.164 226 146.188 225.144 146.188 223.432C146.188 222.504 146.804 221.864 148.036 221.512L149.476 222.16C149.348 222.624 149.284 223.064 149.284 223.48C149.284 224.856 150.308 225.544 152.356 225.544C153.604 225.544 154.564 225.312 155.236 224.848C155.908 224.384 156.244 223.808 156.244 223.12C156.244 222.432 156.036 221.968 155.62 221.728C155.22 221.504 154.412 221.392 153.196 221.392H150.868C149.572 221.392 148.644 221.176 148.084 220.744C147.524 220.312 147.244 219.784 147.244 219.16C147.244 218.52 147.444 217.992 147.844 217.576C148.244 217.144 148.956 216.616 149.98 215.992C148.124 215.464 147.196 214.248 147.196 212.344C147.196 211.144 147.628 210.176 148.492 209.44C149.356 208.704 150.652 208.336 152.38 208.336C153.42 208.336 154.308 208.536 155.044 208.936C154.948 208.504 154.9 208.112 154.9 207.76C154.9 206.864 155.14 206.216 155.62 205.816C156.1 205.416 156.636 205.216 157.228 205.216C157.82 205.216 158.292 205.376 158.644 205.696C159.012 206 159.196 206.424 159.196 206.968C159.196 207.512 159.052 207.92 158.764 208.192C158.476 208.448 158.124 208.576 157.708 208.576C157.308 208.576 156.972 208.472 156.7 208.264C156.444 208.04 156.308 207.728 156.292 207.328ZM151.204 211.816V213.112C151.204 214.184 151.292 214.912 151.468 215.296C151.66 215.68 151.94 215.872 152.308 215.872C152.692 215.872 152.964 215.688 153.124 215.32C153.3 214.936 153.388 214.16 153.388 212.992V211.816C153.388 210.568 153.308 209.752 153.148 209.368C152.988 208.968 152.716 208.768 152.332 208.768C151.964 208.768 151.684 208.976 151.492 209.392C151.3 209.792 151.204 210.6 151.204 211.816ZM164.336 220.24C162.272 220.24 160.72 219.712 159.68 218.656C158.656 217.584 158.144 216.104 158.144 214.216C158.144 212.312 158.72 210.856 159.872 209.848C161.04 208.84 162.52 208.336 164.312 208.336C167.944 208.336 169.688 210.16 169.544 213.808H162.776V214.744C162.776 216.312 162.976 217.496 163.376 218.296C163.776 219.096 164.472 219.496 165.464 219.496C167.32 219.496 168.536 218.504 169.112 216.52L169.544 216.592C169.24 217.744 168.688 218.64 167.888 219.28C167.104 219.92 165.92 220.24 164.336 220.24ZM162.8 213.328H165.272V212.152C165.272 210.856 165.192 209.976 165.032 209.512C164.888 209.032 164.584 208.792 164.12 208.792C163.672 208.792 163.336 209.048 163.112 209.56C162.904 210.056 162.8 210.92 162.8 212.152V213.328ZM183.16 203.416C180.68 203.416 179.44 205.808 179.44 210.592V212.488C179.44 214.76 179.768 216.544 180.424 217.84C181.08 219.12 182.048 219.76 183.328 219.76C185.088 219.76 186.704 218.048 188.176 214.624H188.608L188.44 219.976H188.176C188.08 219.8 187.992 219.68 187.912 219.616C187.832 219.536 187.712 219.496 187.552 219.496C187.408 219.496 186.832 219.624 185.824 219.88C184.816 220.12 183.792 220.24 182.752 220.24C180.144 220.24 178.12 219.536 176.68 218.128C175.256 216.72 174.544 214.608 174.544 211.792C174.544 208.96 175.288 206.776 176.776 205.24C178.28 203.704 180.296 202.936 182.824 202.936C183.8 202.936 184.752 203.064 185.68 203.32C186.624 203.56 187.176 203.68 187.336 203.68C187.496 203.68 187.616 203.648 187.696 203.584C187.776 203.504 187.864 203.376 187.96 203.2H188.224L188.416 208.408H187.984C187.264 206.792 186.52 205.56 185.752 204.712C185 203.848 184.136 203.416 183.16 203.416ZM189.818 202H195.698V219.568H197.042V220H189.914V219.568H191.234V202.432H189.818V202ZM200.58 206.92C199.732 206.92 199.124 206.704 198.756 206.272C198.404 205.84 198.228 205.304 198.228 204.664C198.228 204.024 198.42 203.496 198.804 203.08C199.204 202.664 199.804 202.456 200.604 202.456C201.404 202.456 202.012 202.648 202.428 203.032C202.844 203.4 203.052 203.936 203.052 204.64C203.052 205.328 202.852 205.88 202.452 206.296C202.052 206.712 201.428 206.92 200.58 206.92ZM196.956 208.576H202.836V219.568H204.18V220H197.052V219.568H198.372V209.008H196.956V208.576ZM204.261 208.576H210.045V210.784C210.301 210.048 210.693 209.456 211.221 209.008C211.749 208.56 212.549 208.336 213.621 208.336C216.101 208.336 217.341 209.672 217.341 212.344V219.568H218.685V220H211.893V219.568H212.877V211.768C212.877 210.808 212.813 210.192 212.685 209.92C212.557 209.632 212.325 209.488 211.989 209.488C211.477 209.488 211.021 209.824 210.621 210.496C210.237 211.168 210.045 211.984 210.045 212.944V219.568H211.077V220H204.261V219.568H205.581V209.008H204.261V208.576ZM222.074 206.92C221.226 206.92 220.618 206.704 220.25 206.272C219.898 205.84 219.722 205.304 219.722 204.664C219.722 204.024 219.914 203.496 220.298 203.08C220.698 202.664 221.298 202.456 222.098 202.456C222.898 202.456 223.506 202.648 223.922 203.032C224.338 203.4 224.546 203.936 224.546 204.64C224.546 205.328 224.346 205.88 223.946 206.296C223.546 206.712 222.922 206.92 222.074 206.92ZM218.45 208.576H224.33V219.568H225.674V220H218.546V219.568H219.866V209.008H218.45V208.576ZM232.427 208.768C231.723 208.768 231.219 209.152 230.915 209.92C230.611 210.688 230.459 211.96 230.459 213.736V214.984C230.459 216.568 230.635 217.704 230.987 218.392C231.339 219.08 231.987 219.424 232.931 219.424C233.875 219.424 234.627 219.104 235.187 218.464C235.747 217.824 236.107 217.096 236.267 216.28L236.699 216.328C236.395 217.704 235.835 218.696 235.019 219.304C234.187 219.928 233.043 220.24 231.587 220.24C229.731 220.24 228.307 219.744 227.315 218.752C226.323 217.744 225.827 216.28 225.827 214.36C225.827 212.424 226.387 210.936 227.507 209.896C228.643 208.856 230.219 208.336 232.235 208.336C233.659 208.336 234.747 208.616 235.499 209.176C236.251 209.72 236.627 210.408 236.627 211.24C236.627 212.072 236.443 212.68 236.075 213.064C235.723 213.448 235.227 213.64 234.587 213.64C233.963 213.64 233.459 213.472 233.075 213.136C232.691 212.8 232.499 212.304 232.499 211.648C232.499 211.36 232.539 211.072 232.619 210.784H233.411C233.523 210.464 233.579 210.176 233.579 209.92C233.579 209.152 233.195 208.768 232.427 208.768Z" fill="black" fill-opacity="0.8"/>
<rect x="810" y="168" width="326" height="85" rx="34" fill="#C3D7F1"/>
<path d="M857.731 203.2H866.371V203.728H863.827V219.472H864.691C866.051 219.472 867.131 219.056 867.931 218.224C868.747 217.392 869.571 216.112 870.403 214.384H870.907L870.451 220H857.731V219.472H859.147V203.728H857.731V203.2ZM879.059 215.272V213.232C879.059 211.68 878.971 210.552 878.795 209.848C878.635 209.128 878.251 208.768 877.643 208.768C877.291 208.768 877.003 208.872 876.779 209.08C876.571 209.272 876.419 209.6 876.323 210.064C876.179 210.784 876.107 211.88 876.107 213.352V215.224C876.107 216.968 876.155 218.016 876.251 218.368C876.363 218.72 876.475 219.008 876.587 219.232C876.763 219.616 877.107 219.808 877.619 219.808C878.243 219.808 878.651 219.448 878.843 218.728C878.987 218.216 879.059 217.064 879.059 215.272ZM877.571 220.24C875.571 220.24 874.059 219.728 873.035 218.704C872.011 217.68 871.499 216.216 871.499 214.312C871.499 212.392 872.043 210.92 873.131 209.896C874.235 208.856 875.779 208.336 877.763 208.336C879.747 208.336 881.227 208.816 882.203 209.776C883.179 210.72 883.667 212.168 883.667 214.12C883.667 218.2 881.635 220.24 877.571 220.24ZM884.435 220.24V215.944H884.723C885.139 217.336 885.699 218.312 886.403 218.872C887.107 219.432 887.987 219.712 889.043 219.712C890.675 219.712 891.491 219.192 891.491 218.152C891.491 217.704 891.291 217.368 890.891 217.144C890.267 216.792 889.467 216.52 888.491 216.328C887.403 216.04 886.491 215.656 885.755 215.176C884.875 214.6 884.435 213.688 884.435 212.44C884.435 211.192 884.819 210.2 885.587 209.464C886.355 208.712 887.379 208.336 888.659 208.336C889.443 208.336 890.251 208.52 891.083 208.888C891.387 209.016 891.619 209.08 891.779 209.08C891.939 209.08 892.075 209.024 892.187 208.912C892.299 208.8 892.435 208.592 892.595 208.288H892.859V211.96H892.571C891.755 209.88 890.491 208.84 888.779 208.84C888.027 208.84 887.467 208.976 887.099 209.248C886.731 209.504 886.547 209.832 886.547 210.232C886.547 210.472 886.603 210.664 886.715 210.808C886.827 210.936 886.915 211.032 886.979 211.096C887.043 211.16 887.147 211.232 887.291 211.312C887.435 211.376 887.555 211.432 887.651 211.48C887.747 211.512 887.891 211.56 888.083 211.624C888.291 211.688 888.443 211.728 888.539 211.744C889.627 212.016 890.411 212.256 890.891 212.464C891.371 212.656 891.827 212.896 892.259 213.184C893.139 213.792 893.579 214.776 893.579 216.136C893.579 217.48 893.179 218.504 892.379 219.208C891.579 219.896 890.483 220.24 889.091 220.24C888.099 220.24 887.139 220.008 886.211 219.544C886.019 219.416 885.867 219.352 885.755 219.352C885.403 219.352 885.059 219.648 884.723 220.24H884.435ZM900.145 220.24C898.081 220.24 896.529 219.712 895.489 218.656C894.465 217.584 893.953 216.104 893.953 214.216C893.953 212.312 894.529 210.856 895.681 209.848C896.849 208.84 898.329 208.336 900.121 208.336C903.753 208.336 905.497 210.16 905.353 213.808H898.585V214.744C898.585 216.312 898.785 217.496 899.185 218.296C899.585 219.096 900.281 219.496 901.273 219.496C903.129 219.496 904.345 218.504 904.921 216.52L905.353 216.592C905.049 217.744 904.497 218.64 903.697 219.28C902.913 219.92 901.729 220.24 900.145 220.24ZM898.609 213.328H901.081V212.152C901.081 210.856 901.001 209.976 900.841 209.512C900.697 209.032 900.393 208.792 899.929 208.792C899.481 208.792 899.145 209.048 898.921 209.56C898.713 210.056 898.609 210.92 898.609 212.152V213.328ZM921.392 212.584V210.808C921.392 207.88 921.248 206.032 920.96 205.264C920.64 204.384 920.184 203.84 919.592 203.632C919.256 203.504 918.848 203.44 918.368 203.44C917.888 203.44 917.472 203.504 917.12 203.632C916.784 203.76 916.504 203.984 916.28 204.304C916.056 204.624 915.872 204.96 915.728 205.312C915.6 205.664 915.496 206.16 915.416 206.8C915.32 207.728 915.272 209.096 915.272 210.904V212.632C915.272 214.584 915.344 215.976 915.488 216.808C915.648 217.624 915.84 218.208 916.064 218.56C916.56 219.344 917.328 219.736 918.368 219.736C919.632 219.736 920.448 219.208 920.816 218.152C921.2 217.08 921.392 215.224 921.392 212.584ZM918.32 220.24C915.648 220.24 913.648 219.52 912.32 218.08C911.008 216.624 910.352 214.528 910.352 211.792C910.352 209.04 911.056 206.88 912.464 205.312C913.888 203.728 915.896 202.936 918.488 202.936C921.08 202.936 923.032 203.688 924.344 205.192C925.672 206.68 926.336 208.8 926.336 211.552C926.336 214.304 925.664 216.44 924.32 217.96C922.992 219.48 920.992 220.24 918.32 220.24ZM927.76 202H933.64V219.568H934.984V220H927.856V219.568H929.176V202.432H927.76V202ZM939.865 215.032C939.865 216.712 939.953 217.832 940.129 218.392C940.305 218.936 940.625 219.208 941.089 219.208C941.569 219.208 941.977 219 942.313 218.584C942.665 218.168 942.841 217.552 942.841 216.736V211.504C942.841 210.816 942.705 210.232 942.433 209.752C942.161 209.272 941.761 209.032 941.233 209.032C940.705 209.032 940.345 209.384 940.153 210.088C939.961 210.792 939.865 212.024 939.865 213.784V215.032ZM943.153 220L942.889 218.32C942.345 219.6 941.241 220.24 939.577 220.24C938.201 220.24 937.129 219.744 936.361 218.752C935.609 217.76 935.233 216.28 935.233 214.312C935.233 210.328 936.817 208.336 939.985 208.336C941.393 208.336 942.321 208.728 942.769 209.512V202.432H941.305V202H947.305V219.568H948.481V220H943.153ZM965.415 203.2H971.823V203.656H970.503V219.544H971.823V220H964.503V219.544H965.823V204.544H965.727L962.127 220H959.127L954.903 204.472H954.807V219.544H956.127V220H952.863V219.544H954.183V203.656H952.863V203.2H959.343L962.535 215.56L965.415 203.2ZM978.515 220.24C976.451 220.24 974.899 219.712 973.859 218.656C972.835 217.584 972.323 216.104 972.323 214.216C972.323 212.312 972.899 210.856 974.051 209.848C975.219 208.84 976.699 208.336 978.491 208.336C982.123 208.336 983.867 210.16 983.723 213.808H976.955V214.744C976.955 216.312 977.155 217.496 977.555 218.296C977.955 219.096 978.651 219.496 979.643 219.496C981.499 219.496 982.715 218.504 983.291 216.52L983.723 216.592C983.419 217.744 982.867 218.64 982.067 219.28C981.283 219.92 980.099 220.24 978.515 220.24ZM976.979 213.328H979.451V212.152C979.451 210.856 979.371 209.976 979.211 209.512C979.067 209.032 978.763 208.792 978.299 208.792C977.851 208.792 977.515 209.048 977.291 209.56C977.083 210.056 976.979 210.92 976.979 212.152V213.328ZM988.994 215.032C988.994 216.712 989.082 217.832 989.258 218.392C989.434 218.936 989.754 219.208 990.218 219.208C990.698 219.208 991.106 219 991.442 218.584C991.794 218.168 991.97 217.552 991.97 216.736V211.504C991.97 210.816 991.834 210.232 991.562 209.752C991.29 209.272 990.89 209.032 990.362 209.032C989.834 209.032 989.474 209.384 989.282 210.088C989.09 210.792 988.994 212.024 988.994 213.784V215.032ZM992.282 220L992.018 218.32C991.474 219.6 990.37 220.24 988.706 220.24C987.33 220.24 986.258 219.744 985.49 218.752C984.738 217.76 984.362 216.28 984.362 214.312C984.362 210.328 985.946 208.336 989.114 208.336C990.522 208.336 991.45 208.728 991.898 209.512V202.432H990.434V202H996.434V219.568H997.61V220H992.282ZM1009.26 211.504H1007.99V219.544H1009.55V220H1001.75V219.544H1003.31V203.656H1001.75V203.2H1009C1011.08 203.2 1012.55 203.312 1013.42 203.536C1014.3 203.744 1014.91 204 1015.26 204.304C1016.03 204.928 1016.42 205.92 1016.42 207.28C1016.42 208.64 1016.08 209.616 1015.41 210.208C1014.74 210.784 1013.71 211.128 1012.34 211.24V211.312C1013.63 211.488 1014.54 211.872 1015.05 212.464C1015.56 213.056 1015.82 214.048 1015.82 215.44V216.712C1015.82 217.544 1015.86 218.104 1015.94 218.392C1016.03 218.68 1016.22 218.824 1016.51 218.824C1016.8 218.824 1017.02 218.696 1017.18 218.44C1017.36 218.168 1017.52 217.608 1017.66 216.76L1018.07 216.808C1017.9 218.168 1017.58 219.08 1017.14 219.544C1016.7 220.008 1015.83 220.24 1014.52 220.24C1013.21 220.24 1012.27 219.936 1011.71 219.328C1011.17 218.704 1010.9 217.544 1010.9 215.848V214.096C1010.9 213.2 1010.78 212.544 1010.54 212.128C1010.31 211.712 1009.89 211.504 1009.26 211.504ZM1007.99 203.656V211.048H1008.76C1009.67 211.048 1010.34 210.768 1010.78 210.208C1011.22 209.648 1011.45 208.736 1011.45 207.472V206.776C1011.45 205.512 1011.23 204.68 1010.8 204.28C1010.38 203.864 1009.71 203.656 1008.78 203.656H1007.99ZM1024.43 220.24C1022.37 220.24 1020.82 219.712 1019.78 218.656C1018.75 217.584 1018.24 216.104 1018.24 214.216C1018.24 212.312 1018.82 210.856 1019.97 209.848C1021.14 208.84 1022.62 208.336 1024.41 208.336C1028.04 208.336 1029.79 210.16 1029.64 213.808H1022.87V214.744C1022.87 216.312 1023.07 217.496 1023.47 218.296C1023.87 219.096 1024.57 219.496 1025.56 219.496C1027.42 219.496 1028.63 218.504 1029.21 216.52L1029.64 216.592C1029.34 217.744 1028.79 218.64 1027.99 219.28C1027.2 219.92 1026.02 220.24 1024.43 220.24ZM1022.9 213.328H1025.37V212.152C1025.37 210.856 1025.29 209.976 1025.13 209.512C1024.99 209.032 1024.68 208.792 1024.22 208.792C1023.77 208.792 1023.43 209.048 1023.21 209.56C1023 210.056 1022.9 210.92 1022.9 212.152V213.328ZM1036.76 208.768C1036.06 208.768 1035.55 209.152 1035.25 209.92C1034.94 210.688 1034.79 211.96 1034.79 213.736V214.984C1034.79 216.568 1034.97 217.704 1035.32 218.392C1035.67 219.08 1036.32 219.424 1037.26 219.424C1038.21 219.424 1038.96 219.104 1039.52 218.464C1040.08 217.824 1040.44 217.096 1040.6 216.28L1041.03 216.328C1040.73 217.704 1040.17 218.696 1039.35 219.304C1038.52 219.928 1037.38 220.24 1035.92 220.24C1034.06 220.24 1032.64 219.744 1031.65 218.752C1030.66 217.744 1030.16 216.28 1030.16 214.36C1030.16 212.424 1030.72 210.936 1031.84 209.896C1032.98 208.856 1034.55 208.336 1036.57 208.336C1037.99 208.336 1039.08 208.616 1039.83 209.176C1040.58 209.72 1040.96 210.408 1040.96 211.24C1040.96 212.072 1040.78 212.68 1040.41 213.064C1040.06 213.448 1039.56 213.64 1038.92 213.64C1038.3 213.64 1037.79 213.472 1037.41 213.136C1037.02 212.8 1036.83 212.304 1036.83 211.648C1036.83 211.36 1036.87 211.072 1036.95 210.784H1037.74C1037.86 210.464 1037.91 210.176 1037.91 209.92C1037.91 209.152 1037.53 208.768 1036.76 208.768ZM1048.94 215.272V213.232C1048.94 211.68 1048.85 210.552 1048.67 209.848C1048.51 209.128 1048.13 208.768 1047.52 208.768C1047.17 208.768 1046.88 208.872 1046.66 209.08C1046.45 209.272 1046.3 209.6 1046.2 210.064C1046.06 210.784 1045.99 211.88 1045.99 213.352V215.224C1045.99 216.968 1046.03 218.016 1046.13 218.368C1046.24 218.72 1046.35 219.008 1046.47 219.232C1046.64 219.616 1046.99 219.808 1047.5 219.808C1048.12 219.808 1048.53 219.448 1048.72 218.728C1048.87 218.216 1048.94 217.064 1048.94 215.272ZM1047.45 220.24C1045.45 220.24 1043.94 219.728 1042.91 218.704C1041.89 217.68 1041.38 216.216 1041.38 214.312C1041.38 212.392 1041.92 210.92 1043.01 209.896C1044.11 208.856 1045.66 208.336 1047.64 208.336C1049.63 208.336 1051.11 208.816 1052.08 209.776C1053.06 210.72 1053.55 212.168 1053.55 214.12C1053.55 218.2 1051.51 220.24 1047.45 220.24ZM1061.78 209.248C1061.19 209.248 1060.67 209.632 1060.22 210.4C1059.77 211.168 1059.55 212.08 1059.55 213.136V219.568H1061.25V220H1053.76V219.568H1055.08V209.008H1053.76V208.576H1059.55V210.88C1059.75 210.064 1060.15 209.44 1060.75 209.008C1061.34 208.56 1062.01 208.336 1062.76 208.336C1063.51 208.336 1064.12 208.552 1064.59 208.984C1065.07 209.4 1065.31 210 1065.31 210.784C1065.31 211.552 1065.13 212.144 1064.78 212.56C1064.43 212.976 1063.88 213.184 1063.15 213.184C1062.43 213.184 1061.89 212.944 1061.54 212.464C1061.2 211.984 1061.16 211.32 1061.42 210.472H1062.28C1062.68 209.656 1062.51 209.248 1061.78 209.248ZM1070.06 215.032C1070.06 216.712 1070.15 217.832 1070.32 218.392C1070.5 218.936 1070.82 219.208 1071.28 219.208C1071.76 219.208 1072.17 219 1072.51 218.584C1072.86 218.168 1073.04 217.552 1073.04 216.736V211.504C1073.04 210.816 1072.9 210.232 1072.63 209.752C1072.36 209.272 1071.96 209.032 1071.43 209.032C1070.9 209.032 1070.54 209.384 1070.35 210.088C1070.16 210.792 1070.06 212.024 1070.06 213.784V215.032ZM1073.35 220L1073.08 218.32C1072.54 219.6 1071.44 220.24 1069.77 220.24C1068.4 220.24 1067.32 219.744 1066.56 218.752C1065.8 217.76 1065.43 216.28 1065.43 214.312C1065.43 210.328 1067.01 208.336 1070.18 208.336C1071.59 208.336 1072.52 208.728 1072.96 209.512V202.432H1071.5V202H1077.5V219.568H1078.68V220H1073.35ZM1079.16 220.24V215.944H1079.45C1079.86 217.336 1080.42 218.312 1081.13 218.872C1081.83 219.432 1082.71 219.712 1083.77 219.712C1085.4 219.712 1086.22 219.192 1086.22 218.152C1086.22 217.704 1086.02 217.368 1085.62 217.144C1084.99 216.792 1084.19 216.52 1083.22 216.328C1082.13 216.04 1081.22 215.656 1080.48 215.176C1079.6 214.6 1079.16 213.688 1079.16 212.44C1079.16 211.192 1079.54 210.2 1080.31 209.464C1081.08 208.712 1082.1 208.336 1083.38 208.336C1084.17 208.336 1084.98 208.52 1085.81 208.888C1086.11 209.016 1086.34 209.08 1086.5 209.08C1086.66 209.08 1086.8 209.024 1086.91 208.912C1087.02 208.8 1087.16 208.592 1087.32 208.288H1087.58V211.96H1087.3C1086.48 209.88 1085.22 208.84 1083.5 208.84C1082.75 208.84 1082.19 208.976 1081.82 209.248C1081.46 209.504 1081.27 209.832 1081.27 210.232C1081.27 210.472 1081.33 210.664 1081.44 210.808C1081.55 210.936 1081.64 211.032 1081.7 211.096C1081.77 211.16 1081.87 211.232 1082.02 211.312C1082.16 211.376 1082.28 211.432 1082.38 211.48C1082.47 211.512 1082.62 211.56 1082.81 211.624C1083.02 211.688 1083.17 211.728 1083.26 211.744C1084.35 212.016 1085.14 212.256 1085.62 212.464C1086.1 212.656 1086.55 212.896 1086.98 213.184C1087.86 213.792 1088.3 214.776 1088.3 216.136C1088.3 217.48 1087.9 218.504 1087.1 219.208C1086.3 219.896 1085.21 220.24 1083.82 220.24C1082.82 220.24 1081.86 220.008 1080.94 219.544C1080.74 219.416 1080.59 219.352 1080.48 219.352C1080.13 219.352 1079.78 219.648 1079.45 220.24H1079.16Z" fill="black" fill-opacity="0.8"/>
</svg>
