<svg width="110" height="33" viewBox="0 0 110 33" fill="none" xmlns="http://www.w3.org/2000/svg">
<path d="M4.664 9.864L3 25H0.28L3 1.48L11.96 17.704L20.92 1.48L23.64 25H20.92L19.256 9.864L11.96 22.92L4.664 9.864ZM33.0023 25.32C31.6369 25.32 30.4209 25 29.3543 24.36C28.3089 23.6987 27.4876 22.792 26.8903 21.64C26.3143 20.488 26.0263 19.1547 26.0263 17.64C26.0263 16.104 26.3249 14.76 26.9223 13.608C27.5409 12.456 28.3943 11.56 29.4823 10.92C30.5916 10.28 31.8716 9.96 33.3223 9.96C34.7729 9.96 36.0103 10.2693 37.0343 10.888C38.0796 11.4853 38.8796 12.3493 39.4343 13.48C39.9889 14.6107 40.2663 15.9547 40.2663 17.512C40.2663 17.6613 40.2556 17.8213 40.2343 17.992C40.2343 18.1413 40.2343 18.2373 40.2343 18.28H27.6583V16.104H38.2183L37.1943 17.576C37.2583 17.4693 37.3223 17.3093 37.3863 17.096C37.4503 16.8613 37.4823 16.6693 37.4823 16.52C37.4823 15.6453 37.3009 14.888 36.9383 14.248C36.5969 13.608 36.1169 13.1067 35.4983 12.744C34.8796 12.3813 34.1543 12.2 33.3223 12.2C32.3409 12.2 31.4983 12.4133 30.7943 12.84C30.1116 13.2453 29.5783 13.8427 29.1943 14.632C28.8316 15.4 28.6396 16.3493 28.6183 17.48C28.6183 18.632 28.7996 19.6133 29.1623 20.424C29.5249 21.2347 30.0583 21.8533 30.7623 22.28C31.4663 22.7067 32.3196 22.92 33.3223 22.92C34.3249 22.92 35.2103 22.7067 35.9783 22.28C36.7463 21.832 37.3969 21.16 37.9303 20.264L40.0103 21.576C39.2423 22.8133 38.2716 23.752 37.0983 24.392C35.9463 25.0107 34.5809 25.32 33.0023 25.32ZM54.815 0.039999H57.375V25H54.815V0.039999ZM42.495 17.64C42.495 16.04 42.8257 14.6747 43.487 13.544C44.1483 12.392 45.0337 11.5067 46.143 10.888C47.2523 10.2693 48.4683 9.96 49.791 9.96C51.0283 9.96 52.1057 10.2693 53.023 10.888C53.9403 11.5067 54.655 12.392 55.167 13.544C55.7003 14.6747 55.967 16.04 55.967 17.64C55.967 19.2187 55.7003 20.584 55.167 21.736C54.655 22.888 53.9403 23.7733 53.023 24.392C52.1057 25.0107 51.0283 25.32 49.791 25.32C48.4683 25.32 47.2523 25.0107 46.143 24.392C45.0337 23.7733 44.1483 22.888 43.487 21.736C42.8257 20.584 42.495 19.2187 42.495 17.64ZM45.087 17.64C45.087 18.7707 45.311 19.7307 45.759 20.52C46.2283 21.3093 46.847 21.9067 47.615 22.312C48.383 22.7173 49.215 22.92 50.111 22.92C50.8577 22.92 51.5937 22.7173 52.319 22.312C53.0443 21.9067 53.6417 21.3093 54.111 20.52C54.5803 19.7307 54.815 18.7707 54.815 17.64C54.815 16.5093 54.5803 15.5493 54.111 14.76C53.6417 13.9707 53.0443 13.3733 52.319 12.968C51.5937 12.5627 50.8577 12.36 50.111 12.36C49.215 12.36 48.383 12.5627 47.615 12.968C46.847 13.3733 46.2283 13.9707 45.759 14.76C45.311 15.5493 45.087 16.5093 45.087 17.64ZM62.025 4.2C62.025 3.70933 62.1957 3.29333 62.537 2.952C62.8997 2.61067 63.3157 2.44 63.785 2.44C64.2757 2.44 64.6917 2.61067 65.033 2.952C65.3743 3.29333 65.545 3.70933 65.545 4.2C65.545 4.66933 65.3743 5.08533 65.033 5.448C64.6917 5.78933 64.2757 5.96 63.785 5.96C63.3157 5.96 62.8997 5.78933 62.537 5.448C62.1957 5.08533 62.025 4.66933 62.025 4.2ZM62.505 10.28H65.065V25H62.505V10.28ZM71.4895 20.456C71.4895 21.0107 71.6175 21.4907 71.8735 21.896C72.1508 22.3013 72.5242 22.6107 72.9935 22.824C73.4842 23.016 74.0388 23.112 74.6575 23.112C75.4468 23.112 76.1508 22.952 76.7695 22.632C77.4095 22.312 77.9108 21.864 78.2735 21.288C78.6575 20.6907 78.8495 20.008 78.8495 19.24L79.3615 21.16C79.3615 22.0987 79.0735 22.8773 78.4975 23.496C77.9428 24.1147 77.2495 24.5733 76.4175 24.872C75.6068 25.1707 74.7962 25.32 73.9855 25.32C73.0895 25.32 72.2468 25.1387 71.4575 24.776C70.6895 24.392 70.0708 23.848 69.6015 23.144C69.1322 22.44 68.8975 21.5867 68.8975 20.584C68.8975 19.1547 69.3988 18.0133 70.4015 17.16C71.4255 16.2853 72.8442 15.848 74.6575 15.848C75.7242 15.848 76.6095 15.976 77.3135 16.232C78.0388 16.4667 78.6148 16.744 79.0415 17.064C79.4682 17.3627 79.7562 17.608 79.9055 17.8V19.304C79.1588 18.792 78.3908 18.4293 77.6015 18.216C76.8122 17.9813 75.9695 17.864 75.0735 17.864C74.2415 17.864 73.5588 17.9707 73.0255 18.184C72.5135 18.3973 72.1295 18.696 71.8735 19.08C71.6175 19.464 71.4895 19.9227 71.4895 20.456ZM71.1055 13.672L69.8575 11.784C70.4122 11.3787 71.1695 10.9733 72.1295 10.568C73.1108 10.1627 74.2842 9.96 75.6495 9.96C76.8015 9.96 77.8042 10.1413 78.6575 10.504C79.5322 10.8453 80.2042 11.3467 80.6735 12.008C81.1642 12.6693 81.4095 13.48 81.4095 14.44V25H78.8495V14.792C78.8495 14.28 78.7642 13.864 78.5935 13.544C78.4228 13.2027 78.1775 12.936 77.8575 12.744C77.5588 12.552 77.2068 12.4133 76.8015 12.328C76.3962 12.2427 75.9695 12.2 75.5215 12.2C74.7962 12.2 74.1348 12.2853 73.5375 12.456C72.9615 12.6267 72.4708 12.8293 72.0655 13.064C71.6602 13.2987 71.3402 13.5013 71.1055 13.672ZM88.3038 10.28V25H85.7438V10.28H88.3038ZM92.7517 13.096C92.4104 12.84 92.1011 12.6587 91.8238 12.552C91.5464 12.424 91.1944 12.36 90.7678 12.36C90.1278 12.36 89.6264 12.52 89.2638 12.84C88.9011 13.16 88.6451 13.5973 88.4958 14.152C88.3678 14.7067 88.3038 15.336 88.3038 16.04H87.1518C87.1518 14.8667 87.3544 13.832 87.7598 12.936C88.1864 12.0187 88.7304 11.2933 89.3918 10.76C90.0531 10.2267 90.7251 9.96 91.4078 9.96C91.9411 9.96 92.4318 10.0347 92.8798 10.184C93.3491 10.312 93.7758 10.5787 94.1598 10.984L92.7517 13.096ZM109.361 10.28L99.7613 32.04H96.8813L100.913 22.92L95.2812 10.28H98.3213L102.993 21.8L101.937 21.672L106.481 10.28H109.361Z" fill="black"/>
</svg>
